<?xml version="1.0" encoding="utf-8"?>
<!-- Generator: Adobe Illustrator 16.0.0, SVG Export Plug-In . SVG Version: 6.00 Build 0)  -->
<!DOCTYPE svg PUBLIC "-//W3C//DTD SVG 1.1//EN" "http://www.w3.org/Graphics/SVG/1.1/DTD/svg11.dtd">
<svg version="1.1" id="Layer_1" xmlns="http://www.w3.org/2000/svg" xmlns:xlink="http://www.w3.org/1999/xlink" x="0px" y="0px"
	 width="1067.123px" height="1014.993px" viewBox="0 0 1067.123 1014.993" enable-background="new 0 0 1067.123 1014.993"
	 xml:space="preserve">
<path fill="#191724" d="M533.562,10.003l121.041,372.525c1.544,4.75,6.665,8.47,11.658,8.47h391.697l-316.89,230.233
	c-4.042,2.937-5.998,8.956-4.454,13.705l121.042,372.526l-316.89-230.234c-1.969-1.431-4.527-2.219-7.205-2.219
	c-2.677,0-5.236,0.788-7.205,2.219l-316.889,230.234l121.04-372.526c1.543-4.75-0.413-10.77-4.453-13.705L9.165,390.998h391.696
	c4.995,0,10.115-3.721,11.658-8.47L533.562,10.003 M533.562,0.411c-0.672,0-1.344,0.785-1.854,2.354L408.715,381.292
	c-1.02,3.139-4.554,5.707-7.854,5.707H2.854c-3.3,0-3.815,1.587-1.146,3.527l321.995,233.943c2.669,1.939,4.02,6.095,3,9.232
	l-122.99,378.528c-0.665,2.047-0.322,3.176,0.737,3.176c0.565,0,1.334-0.321,2.263-0.996l321.994-233.943
	c1.334-0.97,3.094-1.455,4.854-1.455s3.52,0.485,4.854,1.455l321.994,233.943c0.929,0.675,1.698,0.996,2.263,0.996
	c1.06,0,1.402-1.129,0.737-3.176L740.419,633.7c-1.021-3.138,0.33-7.293,3-9.232l321.995-233.943c2.67-1.94,2.154-3.527-1.146-3.527
	H666.261c-3.3,0-6.834-2.568-7.854-5.707L535.416,2.765C534.906,1.196,534.234,0.411,533.562,0.411L533.562,0.411z"/>
</svg>
