<?xml version="1.0" encoding="utf-8"?>
<!-- Generator: Adobe Illustrator 24.2.3, SVG Export Plug-In . SVG Version: 6.00 Build 0)  -->
<svg version="1.2" baseProfile="tiny" xmlns="http://www.w3.org/2000/svg" xmlns:xlink="http://www.w3.org/1999/xlink" x="0px"
	 y="0px" viewBox="0 0 144 192" overflow="visible" xml:space="preserve">
<g id="More_cover" display="none">
	<g display="inline">
		<path d="M49.18,112.88h2.9v16.92H48.8v-10.03l-3.89,7.25h-2.4l-3.89-7.15v9.94h-3.29v-16.92h2.95l5.45,10.34L49.18,112.88z"/>
		<path d="M60.81,128.94c-1.24-0.71-2.2-1.72-2.87-3.02c-0.67-1.3-1.01-2.84-1.01-4.6s0.34-3.29,1.01-4.6
			c0.67-1.3,1.63-2.31,2.87-3.01c1.24-0.7,2.7-1.06,4.38-1.06s3.14,0.35,4.38,1.06c1.24,0.7,2.2,1.71,2.87,3.01
			c0.67,1.3,1.01,2.84,1.01,4.6s-0.34,3.29-1.01,4.6c-0.67,1.3-1.63,2.31-2.87,3.02c-1.24,0.71-2.7,1.07-4.38,1.07
			S62.05,129.66,60.81,128.94z M68.51,125.62c0.81-0.99,1.21-2.42,1.21-4.3s-0.4-3.3-1.2-4.28c-0.8-0.98-1.91-1.48-3.34-1.48
			c-1.42,0-2.53,0.49-3.32,1.48s-1.19,2.41-1.19,4.28s0.4,3.3,1.2,4.3c0.8,0.99,1.9,1.49,3.31,1.49
			C66.6,127.11,67.7,126.61,68.51,125.62z"/>
		<path d="M92.91,129.79h-4.08l-2.93-5.4c-0.24-0.42-0.53-0.72-0.86-0.9c-0.34-0.18-0.76-0.28-1.27-0.28h-1.85v6.58h-3.7v-16.92H86
			c1.98,0,3.48,0.44,4.5,1.31c1.02,0.87,1.52,2.13,1.52,3.78c0,1.28-0.36,2.35-1.07,3.22c-0.71,0.86-1.72,1.43-3.01,1.7
			c0.88,0.22,1.62,0.86,2.23,1.9L92.91,129.79z M87.77,119.82c0.48-0.38,0.72-0.96,0.72-1.76c0-0.82-0.24-1.41-0.72-1.78
			c-0.48-0.37-1.26-0.55-2.33-0.55h-3.58v4.66h3.58C86.52,120.39,87.29,120.2,87.77,119.82z"/>
		<path d="M96.96,129.79v-16.92h11.66v2.9h-8.02v3.96h7.54v2.9h-7.54v4.25h8.02v2.9H96.96z"/>
	</g>
	<g display="inline">
		<path d="M81.95,106.23c-0.25,0-0.51-0.19-0.59-0.43l-9.22-28.39c-0.04-0.12-0.09-0.18-0.14-0.18s-0.1,0.06-0.14,0.18l-9.22,28.39
			c-0.08,0.24-0.34,0.43-0.59,0.43H32.2c-0.25,0-0.29,0.12-0.09,0.26l3.77,2.74h5.1h21.07c1.55,0,2.96-1.03,3.44-2.5L72,86.69
			l6.51,20.04c0.48,1.47,1.89,2.5,3.44,2.5h21.07h5.1l3.77-2.74c0.2-0.15,0.16-0.26-0.09-0.26H81.95z"/>
		<path d="M91.17,145.69l-16.68-12.12h-4.98l-16.68,12.12l3.94-12.12h-3.15l-6.35,19.55c-0.05,0.15-0.02,0.24,0.06,0.24
			c0.04,0,0.1-0.02,0.17-0.07l24.15-17.55c0.1-0.07,0.23-0.11,0.36-0.11s0.26,0.04,0.36,0.11l24.15,17.55
			c0.07,0.05,0.13,0.07,0.17,0.07c0.08,0,0.11-0.08,0.06-0.24l-6.35-19.55h-3.15L91.17,145.69z"/>
	</g>
	<g display="inline">
		<path d="M0.51,0.64H0v5.84l1.95-1.41c0.03-0.02,0.08-0.02,0.11,0L5.68,7.7c0.03,0.02,0.05,0.01,0.03-0.02L4.33,3.42
			c-0.01-0.04,0-0.08,0.03-0.1l3.62-2.63c0.03-0.02,0.02-0.04-0.01-0.04H3.49c-0.04,0-0.08-0.03-0.09-0.06L3.22,0H0.78L0.6,0.58
			C0.58,0.61,0.54,0.64,0.51,0.64z"/>
		<path d="M14.51,0.64h-4.48c-0.04,0-0.04,0.02-0.01,0.04l3.62,2.63c0.03,0.02,0.05,0.07,0.03,0.1l-1.38,4.26
			c-0.01,0.04,0,0.05,0.03,0.02l3.62-2.63c0.03-0.02,0.08-0.02,0.11,0l3.62,2.63c0.03,0.02,0.05,0.01,0.03-0.02l-1.38-4.26
			c-0.01-0.04,0-0.08,0.03-0.1l3.62-2.63c0.03-0.02,0.02-0.04-0.01-0.04h-4.48c-0.04,0-0.08-0.03-0.09-0.06L17.22,0h-2.43L14.6,0.58
			C14.58,0.61,14.54,0.64,14.51,0.64z"/>
		<path d="M28.51,0.64h-4.48c-0.04,0-0.04,0.02-0.01,0.04l3.62,2.63c0.03,0.02,0.05,0.07,0.03,0.1l-1.38,4.26
			c-0.01,0.04,0,0.05,0.03,0.02l3.62-2.63c0.03-0.02,0.08-0.02,0.11,0l3.62,2.63c0.03,0.02,0.05,0.01,0.03-0.02l-1.38-4.26
			c-0.01-0.04,0-0.08,0.03-0.1l3.62-2.63c0.03-0.02,0.02-0.04-0.01-0.04h-4.48c-0.04,0-0.08-0.03-0.09-0.06L31.22,0h-2.43L28.6,0.58
			C28.58,0.61,28.54,0.64,28.51,0.64z"/>
		<path d="M42.51,0.64h-4.48c-0.04,0-0.04,0.02-0.01,0.04l3.62,2.63c0.03,0.02,0.05,0.07,0.03,0.1l-1.38,4.26
			c-0.01,0.04,0,0.05,0.03,0.02l3.62-2.63c0.03-0.02,0.08-0.02,0.11,0l3.62,2.63c0.03,0.02,0.05,0.01,0.03-0.02l-1.38-4.26
			c-0.01-0.04,0-0.08,0.03-0.1l3.62-2.63c0.03-0.02,0.02-0.04-0.01-0.04h-4.48c-0.04,0-0.08-0.03-0.09-0.06L45.22,0h-2.43L42.6,0.58
			C42.58,0.61,42.54,0.64,42.51,0.64z"/>
		<path d="M56.51,0.64h-4.48c-0.04,0-0.04,0.02-0.01,0.04l3.62,2.63c0.03,0.02,0.05,0.07,0.03,0.1l-1.38,4.26
			c-0.01,0.04,0,0.05,0.03,0.02l3.62-2.63c0.03-0.02,0.08-0.02,0.11,0l3.62,2.63c0.03,0.02,0.05,0.01,0.03-0.02l-1.38-4.26
			c-0.01-0.04,0-0.08,0.03-0.1l3.62-2.63c0.03-0.02,0.02-0.04-0.01-0.04h-4.48c-0.04,0-0.08-0.03-0.09-0.06L59.22,0h-2.43L56.6,0.58
			C56.58,0.61,56.54,0.64,56.51,0.64z"/>
		<path d="M70.51,0.64h-4.48c-0.04,0-0.04,0.02-0.01,0.04l3.62,2.63c0.03,0.02,0.05,0.07,0.03,0.1l-1.38,4.26
			c-0.01,0.04,0,0.05,0.03,0.02l3.62-2.63c0.03-0.02,0.08-0.02,0.11,0l3.62,2.63c0.03,0.02,0.05,0.01,0.03-0.02l-1.38-4.26
			c-0.01-0.04,0-0.08,0.03-0.1l3.62-2.63c0.03-0.02,0.02-0.04-0.01-0.04h-4.48c-0.04,0-0.08-0.03-0.09-0.06L73.22,0h-2.43L70.6,0.58
			C70.58,0.61,70.54,0.64,70.51,0.64z"/>
		<path d="M84.51,0.64h-4.48c-0.04,0-0.04,0.02-0.01,0.04l3.62,2.63c0.03,0.02,0.05,0.07,0.03,0.1l-1.38,4.26
			c-0.01,0.04,0,0.05,0.03,0.02l3.62-2.63c0.03-0.02,0.08-0.02,0.11,0l3.62,2.63c0.03,0.02,0.05,0.01,0.03-0.02l-1.38-4.26
			c-0.01-0.04,0-0.08,0.03-0.1l3.62-2.63c0.03-0.02,0.02-0.04-0.01-0.04h-4.48c-0.04,0-0.08-0.03-0.09-0.06L87.22,0h-2.43L84.6,0.58
			C84.58,0.61,84.54,0.64,84.51,0.64z"/>
		<path d="M98.51,0.64h-4.48c-0.04,0-0.04,0.02-0.01,0.04l3.62,2.63c0.03,0.02,0.05,0.07,0.03,0.1l-1.38,4.26
			c-0.01,0.04,0,0.05,0.03,0.02l3.62-2.63c0.03-0.02,0.08-0.02,0.11,0l3.62,2.63c0.03,0.02,0.05,0.01,0.03-0.02l-1.38-4.26
			c-0.01-0.04,0-0.08,0.03-0.1l3.62-2.63c0.03-0.02,0.02-0.04-0.01-0.04h-4.48c-0.04,0-0.08-0.03-0.09-0.06L101.22,0h-2.43
			L98.6,0.58C98.58,0.61,98.54,0.64,98.51,0.64z"/>
		<path d="M112.51,0.64h-4.48c-0.04,0-0.04,0.02-0.01,0.04l3.62,2.63c0.03,0.02,0.05,0.07,0.03,0.1l-1.38,4.26
			c-0.01,0.04,0,0.05,0.03,0.02l3.62-2.63c0.03-0.02,0.08-0.02,0.11,0l3.62,2.63c0.03,0.02,0.05,0.01,0.03-0.02l-1.38-4.26
			c-0.01-0.04,0-0.08,0.03-0.1l3.62-2.63c0.03-0.02,0.02-0.04-0.01-0.04h-4.48c-0.04,0-0.08-0.03-0.09-0.06L115.22,0h-2.43
			l-0.19,0.58C112.58,0.61,112.54,0.64,112.51,0.64z"/>
		<path d="M126.51,0.64h-4.48c-0.04,0-0.04,0.02-0.01,0.04l3.62,2.63c0.03,0.02,0.05,0.07,0.03,0.1l-1.38,4.26
			c-0.01,0.04,0,0.05,0.03,0.02l3.62-2.63c0.03-0.02,0.08-0.02,0.11,0l3.62,2.63c0.03,0.02,0.05,0.01,0.03-0.02l-1.38-4.26
			c-0.01-0.04,0-0.08,0.03-0.1l3.62-2.63c0.03-0.02,0.02-0.04-0.01-0.04h-4.48c-0.04,0-0.08-0.03-0.09-0.06L129.22,0h-2.43
			l-0.19,0.58C126.58,0.61,126.54,0.64,126.51,0.64z"/>
		<path d="M140.51,0.64h-4.48c-0.04,0-0.04,0.02-0.01,0.04l3.62,2.63c0.03,0.02,0.05,0.07,0.03,0.1l-1.38,4.26
			c-0.01,0.04,0,0.05,0.03,0.02l3.62-2.63c0.03-0.02,0.08-0.02,0.11,0L144,6.48V0.64h-0.51c-0.04,0-0.08-0.03-0.09-0.06L143.22,0
			h-2.43l-0.19,0.58C140.58,0.61,140.54,0.64,140.51,0.64z"/>
		<path d="M0,14.64v0.75l0.98-0.71c0.03-0.02,0.02-0.04-0.01-0.04H0z"/>
		<path d="M7.51,14.64H3.03c-0.04,0-0.04,0.02-0.01,0.04l3.62,2.63c0.03,0.02,0.05,0.07,0.03,0.1l-1.38,4.26
			c-0.01,0.04,0,0.05,0.03,0.02l3.62-2.63c0.03-0.02,0.08-0.02,0.11,0l3.62,2.63c0.03,0.02,0.05,0.01,0.03-0.02l-1.38-4.26
			c-0.01-0.04,0-0.08,0.03-0.1l3.62-2.63c0.03-0.02,0.02-0.04-0.01-0.04h-4.48c-0.04,0-0.08-0.03-0.09-0.06l-1.38-4.26
			c-0.01-0.04-0.03-0.04-0.04,0L7.6,14.58C7.58,14.61,7.54,14.64,7.51,14.64z"/>
		<path d="M28.98,14.68c0.03-0.02,0.02-0.04-0.01-0.04h-4.47c-0.04,0-0.08-0.03-0.09-0.06l-1.38-4.25c-0.01-0.04-0.03-0.04-0.04,0
			l-1.38,4.25c-0.01,0.04-0.05,0.06-0.09,0.06h-4.47c-0.04,0-0.04,0.02-0.01,0.04l3.62,2.63c0.03,0.02,0.05,0.07,0.03,0.1
			l-1.38,4.25c-0.01,0.04,0,0.05,0.03,0.02l3.62-2.63c0.03-0.02,0.08-0.02,0.11,0l3.62,2.63c0.03,0.02,0.05,0.01,0.03-0.02
			l-1.38-4.25c-0.01-0.04,0-0.08,0.03-0.1L28.98,14.68z"/>
		<path d="M42.96,14.69c0.03-0.02,0.02-0.04-0.01-0.04h-4.46c-0.04,0-0.08-0.03-0.09-0.06l-1.38-4.24c-0.01-0.04-0.03-0.04-0.04,0
			l-1.38,4.24c-0.01,0.04-0.05,0.06-0.09,0.06h-4.46c-0.04,0-0.04,0.02-0.01,0.04l3.61,2.62c0.03,0.02,0.04,0.07,0.03,0.1
			l-1.38,4.24c-0.01,0.04,0,0.05,0.03,0.02l3.61-2.62c0.03-0.02,0.08-0.02,0.11,0l3.61,2.62c0.03,0.02,0.04,0.01,0.03-0.02
			l-1.38-4.24c-0.01-0.04,0-0.08,0.03-0.1L42.96,14.69z"/>
		<path d="M51.05,19.04l3.6,2.61c0.03,0.02,0.04,0.01,0.03-0.02l-1.37-4.23c-0.01-0.04,0-0.08,0.03-0.1l3.6-2.61
			c0.03-0.02,0.02-0.04-0.01-0.04h-4.45c-0.04,0-0.08-0.03-0.09-0.06l-1.37-4.23c-0.01-0.04-0.03-0.04-0.04,0l-1.37,4.23
			c-0.01,0.04-0.05,0.06-0.09,0.06h-4.45c-0.04,0-0.04,0.02-0.01,0.04l3.6,2.61c0.03,0.02,0.04,0.07,0.03,0.1l-1.37,4.23
			c-0.01,0.04,0,0.05,0.03,0.02l3.6-2.61C50.98,19.02,51.02,19.02,51.05,19.04z"/>
		<path d="M65.05,19.04l3.59,2.61c0.03,0.02,0.04,0.01,0.03-0.02l-1.37-4.22c-0.01-0.04,0-0.08,0.03-0.1l3.59-2.61
			c0.03-0.02,0.02-0.04-0.01-0.04h-4.44c-0.04,0-0.08-0.03-0.09-0.06l-1.37-4.22c-0.01-0.03-0.03-0.04-0.04,0l-1.37,4.22
			c-0.01,0.03-0.05,0.06-0.09,0.06h-4.44c-0.04,0-0.04,0.02-0.01,0.04l3.59,2.61c0.03,0.02,0.04,0.07,0.03,0.1l-1.37,4.22
			c-0.01,0.03,0,0.05,0.03,0.02l3.59-2.61C64.98,19.02,65.02,19.02,65.05,19.04z"/>
		<path d="M79.05,19.04l3.59,2.61c0.03,0.02,0.04,0.01,0.03-0.02l-1.37-4.22c-0.01-0.04,0-0.08,0.03-0.1l3.59-2.61
			c0.03-0.02,0.02-0.04-0.01-0.04h-4.44c-0.04,0-0.08-0.03-0.09-0.06l-1.37-4.22c-0.01-0.04-0.03-0.04-0.04,0l-1.37,4.22
			c-0.01,0.03-0.05,0.06-0.09,0.06h-4.44c-0.04,0-0.04,0.02-0.01,0.04l3.59,2.61c0.03,0.02,0.04,0.07,0.03,0.1l-1.37,4.22
			c-0.01,0.04,0,0.05,0.03,0.02l3.59-2.61C78.98,19.02,79.02,19.02,79.05,19.04z"/>
		<path d="M93.05,19.05l3.6,2.62c0.03,0.02,0.04,0.01,0.03-0.02l-1.38-4.24c-0.01-0.04,0-0.08,0.03-0.1l3.6-2.62
			c0.03-0.02,0.02-0.04-0.01-0.04h-4.45c-0.04,0-0.08-0.03-0.09-0.06l-1.38-4.24c-0.01-0.04-0.03-0.04-0.04,0l-1.38,4.24
			c-0.01,0.04-0.05,0.06-0.09,0.06h-4.45c-0.04,0-0.04,0.02-0.01,0.04l3.6,2.62c0.03,0.02,0.05,0.07,0.03,0.1l-1.38,4.24
			c-0.01,0.04,0,0.05,0.03,0.02l3.6-2.62C92.98,19.03,93.02,19.03,93.05,19.05z"/>
		<path d="M112.97,14.68c0.03-0.02,0.02-0.04-0.01-0.04h-4.47c-0.04,0-0.08-0.03-0.09-0.06l-1.38-4.25c-0.01-0.04-0.03-0.04-0.04,0
			l-1.38,4.25c-0.01,0.04-0.05,0.06-0.09,0.06h-4.47c-0.04,0-0.04,0.02-0.01,0.04l3.62,2.63c0.03,0.02,0.05,0.07,0.03,0.1
			l-1.38,4.25c-0.01,0.04,0,0.05,0.03,0.02l3.62-2.63c0.03-0.02,0.08-0.02,0.11,0l3.62,2.63c0.03,0.02,0.05,0.01,0.03-0.02
			l-1.38-4.25c-0.01-0.04,0-0.08,0.03-0.1L112.97,14.68z"/>
		<path d="M117.32,21.7l3.62-2.63c0.03-0.02,0.08-0.02,0.11,0l3.62,2.63c0.03,0.02,0.05,0.01,0.03-0.02l-1.38-4.26
			c-0.01-0.04,0-0.08,0.03-0.1l3.62-2.63c0.03-0.02,0.02-0.04-0.01-0.04h-4.48c-0.04,0-0.08-0.03-0.09-0.06l-1.38-4.26
			c-0.01-0.04-0.03-0.04-0.04,0l-1.38,4.26c-0.01,0.04-0.05,0.06-0.09,0.06h-4.48c-0.04,0-0.04,0.02-0.01,0.04l3.62,2.63
			c0.03,0.02,0.05,0.07,0.03,0.1l-1.38,4.26C117.28,21.71,117.29,21.72,117.32,21.7z"/>
		<path d="M133.51,14.64h-4.48c-0.04,0-0.04,0.02-0.01,0.04l3.62,2.63c0.03,0.02,0.05,0.07,0.03,0.1l-1.38,4.26
			c-0.01,0.04,0,0.05,0.03,0.02l3.62-2.63c0.03-0.02,0.08-0.02,0.11,0l3.62,2.63c0.03,0.02,0.05,0.01,0.03-0.02l-1.38-4.26
			c-0.01-0.04,0-0.08,0.03-0.1l3.62-2.63c0.03-0.02,0.02-0.04-0.01-0.04h-4.48c-0.04,0-0.08-0.03-0.09-0.06l-1.38-4.26
			c-0.01-0.04-0.03-0.04-0.04,0l-1.38,4.26C133.58,14.61,133.54,14.64,133.51,14.64z"/>
		<path d="M143.02,14.68l0.98,0.71v-0.75h-0.97C142.99,14.64,142.99,14.66,143.02,14.68z"/>
		<path d="M1.98,24.36l-1.37,4.23c-0.01,0.04-0.05,0.06-0.09,0.06H0v5.81l1.95-1.41c0.03-0.02,0.08-0.02,0.11,0l3.6,2.61
			c0.03,0.02,0.04,0.01,0.03-0.02l-1.37-4.23c-0.01-0.04,0-0.08,0.03-0.1l3.6-2.61c0.03-0.02,0.02-0.04-0.01-0.04H3.48
			c-0.04,0-0.08-0.03-0.09-0.06l-1.37-4.23C2.01,24.32,1.99,24.32,1.98,24.36z"/>
		<path d="M21.89,28.7c0.03-0.02,0.02-0.04-0.01-0.04h-4.4c-0.04,0-0.08-0.03-0.09-0.06l-1.36-4.19c-0.01-0.03-0.03-0.03-0.04,0
			l-1.36,4.19c-0.01,0.03-0.05,0.06-0.09,0.06h-4.4c-0.04,0-0.04,0.02-0.01,0.04l3.56,2.59c0.03,0.02,0.04,0.07,0.03,0.1l-1.36,4.19
			c-0.01,0.03,0,0.05,0.03,0.02l3.56-2.59c0.03-0.02,0.08-0.02,0.11,0l3.56,2.59c0.03,0.02,0.04,0.01,0.03-0.02l-1.36-4.19
			c-0.01-0.03,0-0.08,0.03-0.1L21.89,28.7z"/>
		<path d="M30.05,32.98l3.52,2.56c0.03,0.02,0.04,0.01,0.03-0.02l-1.35-4.14c-0.01-0.03,0-0.08,0.03-0.1l3.52-2.56
			c0.03-0.02,0.02-0.04-0.01-0.04h-4.35c-0.04,0-0.07-0.03-0.09-0.06l-1.35-4.14c-0.01-0.03-0.03-0.03-0.04,0l-1.35,4.14
			c-0.01,0.03-0.05,0.06-0.09,0.06H24.2c-0.04,0-0.04,0.02-0.01,0.04l3.52,2.56c0.03,0.02,0.04,0.07,0.03,0.1l-1.35,4.14
			c-0.01,0.03,0,0.05,0.03,0.02l3.52-2.56C29.98,32.96,30.02,32.96,30.05,32.98z"/>
		<path d="M49.76,28.73c0.03-0.02,0.02-0.04-0.01-0.04h-4.31c-0.04,0-0.07-0.03-0.09-0.06l-1.33-4.1c-0.01-0.03-0.03-0.03-0.04,0
			l-1.33,4.1c-0.01,0.03-0.05,0.06-0.09,0.06h-4.31c-0.04,0-0.04,0.02-0.01,0.04l3.49,2.53c0.03,0.02,0.04,0.07,0.03,0.1l-1.33,4.1
			c-0.01,0.03,0,0.04,0.03,0.02l3.49-2.53c0.03-0.02,0.08-0.02,0.11,0l3.49,2.53c0.03,0.02,0.04,0.01,0.03-0.02l-1.33-4.1
			c-0.01-0.03,0-0.08,0.03-0.1L49.76,28.73z"/>
		<path d="M63.72,28.74c0.03-0.02,0.02-0.04-0.01-0.04h-4.28c-0.04,0-0.07-0.03-0.08-0.06l-1.32-4.07c-0.01-0.03-0.03-0.03-0.04,0
			l-1.32,4.07c-0.01,0.03-0.05,0.06-0.08,0.06h-4.28c-0.04,0-0.04,0.02-0.01,0.04l3.46,2.52c0.03,0.02,0.04,0.07,0.03,0.1
			l-1.32,4.07c-0.01,0.03,0,0.04,0.03,0.02l3.46-2.52c0.03-0.02,0.08-0.02,0.1,0l3.46,2.52c0.03,0.02,0.04,0.01,0.03-0.02
			l-1.32-4.07c-0.01-0.03,0-0.08,0.03-0.1L63.72,28.74z"/>
		<path d="M77.71,28.74c0.03-0.02,0.02-0.04-0.01-0.04h-4.27c-0.04,0-0.07-0.03-0.08-0.06l-1.32-4.06c-0.01-0.03-0.03-0.03-0.04,0
			l-1.32,4.06c-0.01,0.03-0.05,0.06-0.08,0.06H66.3c-0.04,0-0.04,0.02-0.01,0.04l3.46,2.51c0.03,0.02,0.04,0.07,0.03,0.1l-1.32,4.06
			c-0.01,0.03,0,0.04,0.03,0.02l3.46-2.51c0.03-0.02,0.08-0.02,0.1,0l3.46,2.51c0.03,0.02,0.04,0.01,0.03-0.02l-1.32-4.06
			c-0.01-0.03,0-0.08,0.03-0.1L77.71,28.74z"/>
		<path d="M91.74,28.73c0.03-0.02,0.02-0.04-0.01-0.04h-4.3c-0.04,0-0.07-0.03-0.08-0.06l-1.33-4.09c-0.01-0.03-0.03-0.03-0.04,0
			l-1.33,4.09c-0.01,0.03-0.05,0.06-0.08,0.06h-4.3c-0.04,0-0.04,0.02-0.01,0.04l3.48,2.52c0.03,0.02,0.04,0.07,0.03,0.1l-1.33,4.09
			c-0.01,0.03,0,0.04,0.03,0.02l3.48-2.52c0.03-0.02,0.08-0.02,0.1,0l3.48,2.52c0.03,0.02,0.04,0.01,0.03-0.02l-1.33-4.09
			c-0.01-0.03,0-0.08,0.03-0.1L91.74,28.73z"/>
		<path d="M96.43,35.53l3.51-2.55c0.03-0.02,0.08-0.02,0.11,0l3.51,2.55c0.03,0.02,0.04,0.01,0.03-0.02l-1.34-4.13
			c-0.01-0.03,0-0.08,0.03-0.1l3.51-2.55c0.03-0.02,0.02-0.04-0.01-0.04h-4.34c-0.04,0-0.07-0.03-0.09-0.06l-1.34-4.13
			c-0.01-0.03-0.03-0.03-0.04,0l-1.34,4.13c-0.01,0.03-0.05,0.06-0.09,0.06h-4.34c-0.04,0-0.04,0.02-0.01,0.04l3.51,2.55
			c0.03,0.02,0.04,0.07,0.03,0.1L96.4,35.5C96.39,35.54,96.4,35.55,96.43,35.53z"/>
		<path d="M114.05,33.01l3.56,2.59c0.03,0.02,0.04,0.01,0.03-0.02l-1.36-4.18c-0.01-0.03,0-0.08,0.03-0.1l3.56-2.59
			c0.03-0.02,0.02-0.04-0.01-0.04h-4.4c-0.04,0-0.08-0.03-0.09-0.06l-1.36-4.18c-0.01-0.03-0.03-0.03-0.04,0l-1.36,4.18
			c-0.01,0.03-0.05,0.06-0.09,0.06h-4.4c-0.04,0-0.04,0.02-0.01,0.04l3.56,2.59c0.03,0.02,0.04,0.07,0.03,0.1l-1.36,4.18
			c-0.01,0.03,0,0.05,0.03,0.02l3.56-2.59C113.98,32.99,114.02,32.99,114.05,33.01z"/>
		<path d="M124.34,35.67l3.6-2.62c0.03-0.02,0.08-0.02,0.11,0l3.6,2.62c0.03,0.02,0.04,0.01,0.03-0.02l-1.38-4.24
			c-0.01-0.04,0-0.08,0.03-0.1l3.6-2.62c0.03-0.02,0.02-0.04-0.01-0.04h-4.45c-0.04,0-0.08-0.03-0.09-0.06l-1.38-4.24
			c-0.01-0.04-0.03-0.04-0.04,0l-1.38,4.24c-0.01,0.04-0.05,0.06-0.09,0.06h-4.45c-0.04,0-0.04,0.02-0.01,0.04l3.6,2.62
			c0.03,0.02,0.05,0.07,0.03,0.1l-1.38,4.24C124.3,35.68,124.31,35.69,124.34,35.67z"/>
		<path d="M141.98,24.32l-1.38,4.26c-0.01,0.04-0.05,0.06-0.09,0.06h-4.48c-0.04,0-0.04,0.02-0.01,0.04l3.62,2.63
			c0.03,0.02,0.05,0.07,0.03,0.1l-1.38,4.26c-0.01,0.04,0,0.05,0.03,0.02l3.62-2.63c0.03-0.02,0.08-0.02,0.11,0l1.95,1.41v-5.84
			h-0.51c-0.04,0-0.08-0.03-0.09-0.06l-1.38-4.26C142.01,24.28,141.99,24.28,141.98,24.32z"/>
		<path d="M0.82,42.67H0v0.65l0.84-0.61C0.87,42.69,0.86,42.67,0.82,42.67z"/>
		<path d="M14.66,42.75c0.03-0.02,0.02-0.04-0.01-0.04h-4.23c-0.04,0-0.07-0.03-0.08-0.06l-1.31-4.03c-0.01-0.03-0.03-0.03-0.04,0
			l-1.31,4.03c-0.01,0.03-0.05,0.06-0.08,0.06H3.35c-0.04,0-0.04,0.02-0.01,0.04l3.43,2.49c0.03,0.02,0.04,0.06,0.03,0.1l-1.31,4.03
			c-0.01,0.03,0,0.04,0.03,0.02l3.43-2.49c0.03-0.02,0.07-0.02,0.1,0l3.43,2.49c0.03,0.02,0.04,0.01,0.03-0.02l-1.31-4.03
			c-0.01-0.03,0-0.08,0.03-0.1L14.66,42.75z"/>
		<path d="M28.43,42.8c0.03-0.02,0.02-0.04-0.01-0.04h-4.06c-0.03,0-0.07-0.03-0.08-0.06l-1.26-3.86c-0.01-0.03-0.03-0.03-0.04,0
			l-1.26,3.86c-0.01,0.03-0.05,0.06-0.08,0.06h-4.06c-0.03,0-0.04,0.02-0.01,0.04l3.29,2.39c0.03,0.02,0.04,0.06,0.03,0.09
			l-1.26,3.86c-0.01,0.03,0,0.04,0.03,0.02l3.29-2.39c0.03-0.02,0.07-0.02,0.1,0l3.29,2.39c0.03,0.02,0.04,0.01,0.03-0.02
			l-1.26-3.86c-0.01-0.03,0-0.07,0.03-0.09L28.43,42.8z"/>
		<path d="M42.2,42.85c0.03-0.02,0.02-0.03-0.01-0.03H38.3c-0.03,0-0.07-0.03-0.08-0.06l-1.2-3.7c-0.01-0.03-0.03-0.03-0.04,0
			l-1.2,3.7c-0.01,0.03-0.04,0.06-0.08,0.06h-3.89c-0.03,0-0.04,0.02-0.01,0.03l3.15,2.29c0.03,0.02,0.04,0.06,0.03,0.09l-1.2,3.7
			c-0.01,0.03,0,0.04,0.03,0.02l3.15-2.29c0.03-0.02,0.07-0.02,0.09,0l3.15,2.29c0.03,0.02,0.04,0.01,0.03-0.02l-1.2-3.7
			c-0.01-0.03,0-0.07,0.03-0.09L42.2,42.85z"/>
		<path d="M56.03,42.89c0.03-0.02,0.02-0.03-0.01-0.03l-3.77,0c-0.03,0-0.06-0.02-0.07-0.05l-1.16-3.58c-0.01-0.03-0.03-0.03-0.04,0
			l-1.16,3.58c-0.01,0.03-0.04,0.05-0.07,0.05h-3.77c-0.03,0-0.04,0.02-0.01,0.03l3.05,2.21c0.03,0.02,0.04,0.06,0.03,0.09
			l-1.16,3.58c-0.01,0.03,0,0.04,0.03,0.02l3.05-2.21c0.03-0.02,0.07-0.02,0.09,0l3.05,2.21c0.03,0.02,0.04,0.01,0.03-0.02
			l-1.16-3.58c-0.01-0.03,0-0.07,0.03-0.09L56.03,42.89z"/>
		<path d="M69.96,42.91c0.02-0.02,0.02-0.03-0.01-0.03h-3.71c-0.03,0-0.06-0.02-0.07-0.05l-1.15-3.53c-0.01-0.03-0.03-0.03-0.03,0
			l-1.15,3.53c-0.01,0.03-0.04,0.05-0.07,0.05h-3.71c-0.03,0-0.04,0.01-0.01,0.03l3,2.18c0.02,0.02,0.04,0.06,0.03,0.09l-1.15,3.53
			c-0.01,0.03,0,0.04,0.03,0.02l3-2.18c0.02-0.02,0.07-0.02,0.09,0l3,2.18c0.02,0.02,0.04,0.01,0.03-0.02l-1.15-3.53
			c-0.01-0.03,0-0.07,0.03-0.09L69.96,42.91z"/>
		<path d="M84.01,42.89c0.03-0.02,0.02-0.03-0.01-0.03h-3.75c-0.03,0-0.06-0.02-0.07-0.05l-1.16-3.57c-0.01-0.03-0.03-0.03-0.03,0
			l-1.16,3.57c-0.01,0.03-0.04,0.05-0.07,0.05l-3.75,0c-0.03,0-0.04,0.01-0.01,0.03l3.03,2.2c0.03,0.02,0.04,0.06,0.03,0.09
			l-1.16,3.57c-0.01,0.03,0,0.04,0.03,0.02l3.03-2.2c0.03-0.02,0.07-0.02,0.09,0l3.03,2.2c0.03,0.02,0.04,0.01,0.03-0.02l-1.16-3.57
			c-0.01-0.03,0-0.07,0.03-0.09L84.01,42.89z"/>
		<path d="M96.21,48.9l-1.2-3.68c-0.01-0.03,0-0.07,0.03-0.09l3.13-2.27c0.03-0.02,0.02-0.03-0.01-0.03h-3.87
			c-0.03,0-0.07-0.03-0.08-0.06l-1.2-3.68c-0.01-0.03-0.03-0.03-0.04,0l-1.2,3.68c-0.01,0.03-0.04,0.06-0.08,0.06h-3.87
			c-0.03,0-0.04,0.02-0.01,0.03l3.13,2.27c0.03,0.02,0.04,0.06,0.03,0.09l-1.2,3.68c-0.01,0.03,0,0.04,0.03,0.02l3.13-2.27
			c0.03-0.02,0.07-0.02,0.09,0l3.13,2.27C96.2,48.94,96.22,48.93,96.21,48.9z"/>
		<path d="M112.41,42.81c0.03-0.02,0.02-0.04-0.01-0.04h-4.05c-0.03,0-0.07-0.03-0.08-0.06l-1.25-3.85c-0.01-0.03-0.03-0.03-0.04,0
			l-1.25,3.85c-0.01,0.03-0.05,0.06-0.08,0.06h-4.05c-0.03,0-0.04,0.02-0.01,0.04l3.27,2.38c0.03,0.02,0.04,0.06,0.03,0.09
			l-1.25,3.85c-0.01,0.03,0,0.04,0.03,0.02l3.27-2.38c0.03-0.02,0.07-0.02,0.1,0l3.27,2.38c0.03,0.02,0.04,0.01,0.03-0.02
			l-1.25-3.85c-0.01-0.03,0-0.07,0.03-0.09L112.41,42.81z"/>
		<path d="M117.52,49.39l3.43-2.49c0.03-0.02,0.07-0.02,0.1,0l3.43,2.49c0.03,0.02,0.04,0.01,0.03-0.02l-1.31-4.03
			c-0.01-0.03,0-0.08,0.03-0.1l3.43-2.49c0.03-0.02,0.02-0.04-0.01-0.04h-4.24c-0.04,0-0.07-0.03-0.08-0.06l-1.31-4.03
			c-0.01-0.03-0.03-0.03-0.04,0l-1.31,4.03c-0.01,0.03-0.05,0.06-0.08,0.06h-4.24c-0.04,0-0.04,0.02-0.01,0.04l3.43,2.49
			c0.03,0.02,0.04,0.06,0.03,0.1l-1.31,4.03C117.48,49.4,117.49,49.41,117.52,49.39z"/>
		<path d="M131.41,49.57l3.54-2.57c0.03-0.02,0.08-0.02,0.11,0l3.54,2.57c0.03,0.02,0.04,0.01,0.03-0.02l-1.35-4.16
			c-0.01-0.03,0-0.08,0.03-0.1l3.54-2.57c0.03-0.02,0.02-0.04-0.01-0.04h-4.38c-0.04,0-0.08-0.03-0.09-0.06l-1.35-4.16
			c-0.01-0.03-0.03-0.03-0.04,0l-1.35,4.16c-0.01,0.03-0.05,0.06-0.09,0.06h-4.38c-0.04,0-0.04,0.02-0.01,0.04l3.54,2.57
			c0.03,0.02,0.04,0.07,0.03,0.1l-1.35,4.16C131.36,49.58,131.38,49.59,131.41,49.57z"/>
		<path d="M143.03,42.68l0.97,0.7v-0.74h-0.95C143.01,42.64,143,42.66,143.03,42.68z"/>
		<path d="M7.33,56.82c0.03-0.02,0.02-0.04-0.01-0.04H3.33c-0.03,0-0.07-0.03-0.08-0.06l-1.23-3.79c-0.01-0.03-0.03-0.03-0.04,0
			l-1.23,3.79c-0.01,0.03-0.05,0.06-0.08,0.06H0v5.36l1.95-1.42c0.03-0.02,0.07-0.02,0.1,0l3.23,2.34c0.03,0.02,0.04,0.01,0.03-0.02
			l-1.23-3.79c-0.01-0.03,0-0.07,0.03-0.09L7.33,56.82z"/>
		<path d="M20.88,56.92c0.02-0.02,0.02-0.03-0.01-0.03h-3.65c-0.03,0-0.06-0.02-0.07-0.05l-1.13-3.47c-0.01-0.03-0.02-0.03-0.03,0
			l-1.13,3.47c-0.01,0.03-0.04,0.05-0.07,0.05h-3.65c-0.03,0-0.04,0.01-0.01,0.03l2.96,2.15c0.02,0.02,0.04,0.06,0.03,0.08
			l-1.13,3.47c-0.01,0.03,0,0.04,0.03,0.02l2.96-2.15c0.02-0.02,0.06-0.02,0.09,0L19,62.65c0.02,0.02,0.04,0.01,0.03-0.02
			l-1.13-3.47c-0.01-0.03,0-0.07,0.03-0.08L20.88,56.92z"/>
		<path d="M34.38,57.03c0.02-0.02,0.02-0.03-0.01-0.03h-3.28c-0.03,0-0.06-0.02-0.06-0.05l-1.01-3.12c-0.01-0.03-0.02-0.03-0.03,0
			l-1.01,3.12c-0.01,0.03-0.04,0.05-0.06,0.05h-3.28c-0.03,0-0.03,0.01-0.01,0.03l2.65,1.93c0.02,0.02,0.03,0.05,0.02,0.08
			l-1.01,3.12c-0.01,0.03,0,0.03,0.02,0.02l2.65-1.93c0.02-0.02,0.06-0.02,0.08,0l2.65,1.93c0.02,0.02,0.03,0.01,0.02-0.02
			l-1.01-3.12c-0.01-0.03,0-0.06,0.02-0.08L34.38,57.03z"/>
		<path d="M47.9,57.14c0.02-0.01,0.02-0.03-0.01-0.03h-2.92c-0.02,0-0.05-0.02-0.06-0.04l-0.9-2.78c-0.01-0.02-0.02-0.02-0.03,0
			l-0.9,2.78c-0.01,0.02-0.03,0.04-0.06,0.04H40.1c-0.02,0-0.03,0.01-0.01,0.03l2.36,1.72c0.02,0.01,0.03,0.04,0.02,0.07l-0.9,2.78
			c-0.01,0.02,0,0.03,0.02,0.02L43.96,60c0.02-0.01,0.05-0.01,0.07,0l2.36,1.72c0.02,0.01,0.03,0.01,0.02-0.02l-0.9-2.78
			c-0.01-0.02,0-0.05,0.02-0.07L47.9,57.14z"/>
		<path d="M61.54,57.22c0.02-0.01,0.01-0.02-0.01-0.02h-2.65c-0.02,0-0.05-0.02-0.05-0.04l-0.82-2.52c-0.01-0.02-0.02-0.02-0.02,0
			l-0.82,2.52c-0.01,0.02-0.03,0.04-0.05,0.04h-2.65c-0.02,0-0.03,0.01-0.01,0.02l2.14,1.56c0.02,0.01,0.03,0.04,0.02,0.06
			l-0.82,2.52c-0.01,0.02,0,0.03,0.02,0.01l2.14-1.56c0.02-0.01,0.05-0.01,0.06,0l2.14,1.56c0.02,0.01,0.03,0.01,0.02-0.01
			l-0.82-2.52c-0.01-0.02,0-0.05,0.02-0.06L61.54,57.22z"/>
		<path d="M75.47,57.23c0.02-0.01,0.01-0.02-0.01-0.02h-2.6c-0.02,0-0.04-0.02-0.05-0.04l-0.8-2.47c-0.01-0.02-0.02-0.02-0.02,0
			l-0.8,2.47c-0.01,0.02-0.03,0.04-0.05,0.04l-2.6,0c-0.02,0-0.02,0.01-0.01,0.02l2.1,1.53c0.02,0.01,0.03,0.04,0.02,0.06l-0.8,2.47
			c-0.01,0.02,0,0.03,0.02,0.01l2.1-1.53c0.02-0.01,0.05-0.01,0.06,0l2.1,1.53c0.02,0.01,0.03,0.01,0.02-0.01l-0.8-2.47
			c-0.01-0.02,0-0.05,0.02-0.06L75.47,57.23z"/>
		<path d="M89.71,57.18c0.02-0.01,0.02-0.02-0.01-0.02h-2.77c-0.02,0-0.05-0.02-0.05-0.04l-0.86-2.64c-0.01-0.02-0.02-0.02-0.03,0
			l-0.86,2.64c-0.01,0.02-0.03,0.04-0.05,0.04H82.3c-0.02,0-0.03,0.01-0.01,0.02l2.24,1.63c0.02,0.01,0.03,0.04,0.02,0.06
			l-0.86,2.64c-0.01,0.02,0,0.03,0.02,0.02l2.24-1.63c0.02-0.01,0.05-0.01,0.07,0l2.24,1.63c0.02,0.01,0.03,0.01,0.02-0.02
			l-0.86-2.64c-0.01-0.02,0-0.05,0.02-0.06L89.71,57.18z"/>
		<path d="M104.19,57.08c0.02-0.02,0.02-0.03-0.01-0.03h-3.13c-0.03,0-0.05-0.02-0.06-0.04l-0.97-2.98c-0.01-0.02-0.02-0.02-0.03,0
			L99.02,57c-0.01,0.02-0.04,0.04-0.06,0.04h-3.13c-0.03,0-0.03,0.01-0.01,0.03l2.53,1.84c0.02,0.02,0.03,0.05,0.02,0.07l-0.97,2.98
			c-0.01,0.02,0,0.03,0.02,0.02l2.53-1.84c0.02-0.02,0.06-0.02,0.08,0l2.53,1.84c0.02,0.02,0.03,0.01,0.02-0.02l-0.97-2.98
			c-0.01-0.02,0-0.06,0.02-0.07L104.19,57.08z"/>
		<path d="M117,62.58l-1.12-3.44c-0.01-0.03,0-0.07,0.03-0.08l2.92-2.12c0.02-0.02,0.02-0.03-0.01-0.03h-3.61
			c-0.03,0-0.06-0.02-0.07-0.05l-1.12-3.44c-0.01-0.03-0.02-0.03-0.03,0l-1.12,3.44c-0.01,0.03-0.04,0.05-0.07,0.05h-3.61
			c-0.03,0-0.03,0.01-0.01,0.03l2.92,2.12c0.02,0.02,0.04,0.06,0.03,0.08L111,62.58c-0.01,0.03,0,0.04,0.03,0.02l2.92-2.12
			c0.02-0.02,0.06-0.02,0.09,0l2.92,2.12C116.99,62.62,117,62.61,117,62.58z"/>
		<path d="M124.73,63.07l3.22-2.34c0.03-0.02,0.07-0.02,0.1,0l3.22,2.34c0.03,0.02,0.04,0.01,0.03-0.02l-1.23-3.79
			c-0.01-0.03,0-0.07,0.03-0.09l3.22-2.34c0.03-0.02,0.02-0.04-0.01-0.04h-3.98c-0.03,0-0.07-0.03-0.08-0.06l-1.23-3.79
			c-0.01-0.03-0.03-0.03-0.04,0l-1.23,3.79c-0.01,0.03-0.05,0.06-0.08,0.06h-3.98c-0.03,0-0.04,0.02-0.01,0.04l3.22,2.34
			c0.03,0.02,0.04,0.06,0.03,0.09l-1.23,3.79C124.69,63.08,124.7,63.09,124.73,63.07z"/>
		<path d="M138.49,63.44l3.46-2.51c0.03-0.02,0.08-0.02,0.1,0l1.95,1.42V56.7h-0.58c-0.04,0-0.07-0.03-0.08-0.06l-1.32-4.06
			c-0.01-0.03-0.03-0.03-0.04,0l-1.32,4.06c-0.01,0.03-0.05,0.06-0.08,0.06h-4.27c-0.04,0-0.04,0.02-0.01,0.04l3.46,2.51
			c0.03,0.02,0.04,0.07,0.03,0.1l-1.32,4.06C138.45,63.45,138.46,63.46,138.49,63.44z"/>
		<path d="M0.05,70.85H0v0.08l0.06-0.04C0.08,70.87,0.08,70.85,0.05,70.85z"/>
		<path d="M13.34,71.01h-3.26c-0.03,0-0.06-0.02-0.06-0.05l-1.01-3.1c-0.01-0.03-0.02-0.03-0.03,0l-1.01,3.1
			c-0.01,0.03-0.04,0.05-0.06,0.05H4.66c-0.03,0-0.03,0.01-0.01,0.03l2.63,1.91c0.02,0.02,0.03,0.05,0.02,0.08l-1.01,3.1
			c-0.01,0.03,0,0.03,0.02,0.02l2.63-1.91c0.02-0.02,0.06-0.02,0.08,0l2.63,1.91c0.02,0.02,0.03,0.01,0.02-0.02l-1.01-3.1
			c-0.01-0.03,0-0.06,0.02-0.08l2.63-1.91C13.37,71.02,13.37,71.01,13.34,71.01z"/>
		<path d="M26.58,71.21c0.02-0.01,0.01-0.02-0.01-0.02h-2.68c-0.02,0-0.05-0.02-0.05-0.04l-0.83-2.55c-0.01-0.02-0.02-0.02-0.02,0
			l-0.83,2.55c-0.01,0.02-0.03,0.04-0.05,0.04h-2.68c-0.02,0-0.03,0.01-0.01,0.02l2.17,1.57c0.02,0.01,0.03,0.04,0.02,0.06
			l-0.83,2.55c-0.01,0.02,0,0.03,0.02,0.01l2.17-1.57c0.02-0.01,0.05-0.01,0.07,0l2.17,1.57c0.02,0.01,0.03,0.01,0.02-0.01
			l-0.83-2.55c-0.01-0.02,0-0.05,0.02-0.06L26.58,71.21z"/>
		<path d="M39.71,71.4c0.01-0.01,0.01-0.02-0.01-0.02h-2.03c-0.02,0-0.03-0.01-0.04-0.03l-0.63-1.93c-0.01-0.02-0.01-0.02-0.02,0
			l-0.63,1.93c-0.01,0.02-0.02,0.03-0.04,0.03H34.3c-0.02,0-0.02,0.01-0.01,0.02l1.64,1.19c0.01,0.01,0.02,0.03,0.02,0.05
			l-0.63,1.93c-0.01,0.02,0,0.02,0.02,0.01l1.64-1.19c0.01-0.01,0.04-0.01,0.05,0l1.64,1.19c0.01,0.01,0.02,0,0.02-0.01l-0.63-1.93
			c-0.01-0.02,0-0.04,0.02-0.05L39.71,71.4z"/>
		<path d="M53.19,71.52c0.01-0.01,0.01-0.01,0-0.01h-1.64c-0.01,0-0.03-0.01-0.03-0.02l-0.51-1.56c0-0.01-0.01-0.01-0.02,0
			l-0.51,1.56c0,0.01-0.02,0.02-0.03,0.02h-1.64c-0.01,0-0.02,0.01,0,0.01l1.33,0.96c0.01,0.01,0.02,0.03,0.01,0.04l-0.51,1.56
			c0,0.01,0,0.02,0.01,0.01l1.33-0.96c0.01-0.01,0.03-0.01,0.04,0l1.33,0.96c0.01,0.01,0.02,0,0.01-0.01l-0.51-1.56
			c0-0.01,0-0.03,0.01-0.04L53.19,71.52z"/>
		<path d="M66.99,71.56c0.01-0.01,0.01-0.01,0-0.01H65.5c-0.01,0-0.03-0.01-0.03-0.02l-0.46-1.42c0-0.01-0.01-0.01-0.01,0
			l-0.46,1.42c0,0.01-0.02,0.02-0.03,0.02h-1.49c-0.01,0-0.01,0.01,0,0.01l1.2,0.88c0.01,0.01,0.02,0.02,0.01,0.03l-0.46,1.42
			c0,0.01,0,0.02,0.01,0.01l1.21-0.88c0.01-0.01,0.03-0.01,0.04,0l1.2,0.88c0.01,0.01,0.02,0,0.01-0.01l-0.46-1.42
			c0-0.01,0-0.03,0.01-0.03L66.99,71.56z"/>
		<path d="M81.07,71.54c0.01-0.01,0.01-0.01,0-0.01h-1.55c-0.01,0-0.03-0.01-0.03-0.02l-0.48-1.47c0-0.01-0.01-0.01-0.01,0
			l-0.48,1.47c0,0.01-0.02,0.02-0.03,0.02h-1.55c-0.01,0-0.01,0.01,0,0.01l1.25,0.91c0.01,0.01,0.02,0.02,0.01,0.04l-0.48,1.47
			c0,0.01,0,0.02,0.01,0.01l1.25-0.91c0.01-0.01,0.03-0.01,0.04,0l1.25,0.91c0.01,0.01,0.02,0,0.01-0.01l-0.48-1.47
			c0-0.01,0-0.03,0.01-0.04L81.07,71.54z"/>
		<path d="M95.42,71.47c0.01-0.01,0.01-0.02-0.01-0.02H93.6c-0.02,0-0.03-0.01-0.04-0.03l-0.56-1.72c0-0.01-0.01-0.01-0.02,0
			l-0.56,1.72c0,0.01-0.02,0.03-0.04,0.03h-1.81c-0.02,0-0.02,0.01-0.01,0.02l1.46,1.06c0.01,0.01,0.02,0.03,0.01,0.04l-0.56,1.72
			c0,0.01,0,0.02,0.01,0.01l1.46-1.06c0.01-0.01,0.03-0.01,0.04,0l1.46,1.06c0.01,0.01,0.02,0,0.01-0.01l-0.56-1.72
			c0-0.01,0-0.03,0.01-0.04L95.42,71.47z"/>
		<path d="M110.12,71.31c0.02-0.01,0.01-0.02-0.01-0.02h-2.33c-0.02,0-0.04-0.02-0.05-0.03l-0.72-2.22c-0.01-0.02-0.02-0.02-0.02,0
			l-0.72,2.22c-0.01,0.02-0.03,0.03-0.05,0.03h-2.33c-0.02,0-0.02,0.01-0.01,0.02l1.89,1.37c0.02,0.01,0.02,0.04,0.02,0.05
			l-0.72,2.22c-0.01,0.02,0,0.02,0.02,0.01l1.89-1.37c0.02-0.01,0.04-0.01,0.06,0l1.89,1.37c0.02,0.01,0.02,0.01,0.02-0.01
			l-0.72-2.22c-0.01-0.02,0-0.04,0.02-0.05L110.12,71.31z"/>
		<path d="M125.07,71.1c0.02-0.01,0.02-0.03-0.01-0.03h-3.04c-0.03,0-0.05-0.02-0.06-0.04l-0.94-2.9c-0.01-0.02-0.02-0.02-0.03,0
			l-0.94,2.9c-0.01,0.02-0.03,0.04-0.06,0.04l-3.04,0c-0.03,0-0.03,0.01-0.01,0.03l2.46,1.79c0.02,0.01,0.03,0.05,0.02,0.07
			l-0.94,2.9c-0.01,0.02,0,0.03,0.02,0.02l2.46-1.79c0.02-0.01,0.05-0.01,0.07,0l2.46,1.79c0.02,0.01,0.03,0.01,0.02-0.02l-0.94-2.9
			c-0.01-0.02,0-0.06,0.02-0.07L125.07,71.1z"/>
		<path d="M133.07,73.17l-1.15,3.54c-0.01,0.03,0,0.04,0.03,0.02l3.01-2.18c0.02-0.02,0.07-0.02,0.09,0l3.01,2.18
			c0.02,0.02,0.04,0.01,0.03-0.02l-1.15-3.54c-0.01-0.03,0-0.07,0.03-0.09l3.01-2.18c0.02-0.02,0.02-0.03-0.01-0.03h-3.72
			c-0.03,0-0.06-0.02-0.07-0.05l-1.15-3.54c-0.01-0.03-0.03-0.03-0.03,0l-1.15,3.54c-0.01,0.03-0.04,0.05-0.07,0.05h-3.72
			c-0.03,0-0.04,0.01-0.01,0.03l3.01,2.18C133.07,73.11,133.08,73.15,133.07,73.17z"/>
		<path d="M143.42,70.77l0.58,0.42v-0.46h-0.57C143.4,70.73,143.39,70.75,143.42,70.77z"/>
		<path d="M6.04,85.08H3.01c-0.03,0-0.05-0.02-0.06-0.04l-0.94-2.88c-0.01-0.02-0.02-0.02-0.03,0l-0.94,2.88
			c-0.01,0.02-0.03,0.04-0.06,0.04H0v1.51l0.4,0.29c0.02,0.01,0.03,0.05,0.02,0.07L0,88.27v1.23l1.96-1.43
			c0.02-0.01,0.05-0.01,0.07,0l2.45,1.78c0.02,0.01,0.03,0.01,0.02-0.02l-0.94-2.88c-0.01-0.02,0-0.06,0.02-0.07l2.45-1.78
			C6.06,85.09,6.06,85.08,6.04,85.08z"/>
		<path d="M18.99,85.32h-2.24c-0.02,0-0.04-0.01-0.04-0.03l-0.69-2.13c-0.01-0.02-0.02-0.02-0.02,0l-0.69,2.13
			c-0.01,0.02-0.03,0.03-0.04,0.03h-2.24c-0.02,0-0.02,0.01-0.01,0.02l1.81,1.32c0.02,0.01,0.02,0.03,0.02,0.05l-0.69,2.13
			c-0.01,0.02,0,0.02,0.02,0.01l1.81-1.32c0.02-0.01,0.04-0.01,0.05,0l1.81,1.32c0.02,0.01,0.02,0.01,0.02-0.01l-0.69-2.13
			c-0.01-0.02,0-0.04,0.02-0.05l1.81-1.32C19.01,85.33,19,85.32,18.99,85.32z"/>
		<path d="M31.98,85.56c0.01-0.01,0.01-0.01,0-0.01h-1.48c-0.01,0-0.03-0.01-0.03-0.02l-0.46-1.41c0-0.01-0.01-0.01-0.01,0
			l-0.46,1.41c0,0.01-0.02,0.02-0.03,0.02h-1.48c-0.01,0-0.01,0.01,0,0.01l1.2,0.87c0.01,0.01,0.02,0.02,0.01,0.03l-0.46,1.41
			c0,0.01,0,0.02,0.01,0.01l1.2-0.87c0.01-0.01,0.03-0.01,0.04,0l1.2,0.87c0.01,0.01,0.02,0,0.01-0.01l-0.46-1.41
			c0-0.01,0-0.03,0.01-0.03L31.98,85.56z"/>
		<path d="M45.39,85.69C45.4,85.69,45.4,85.68,45.39,85.69l-1.04-0.01c-0.01,0-0.02-0.01-0.02-0.01L44,84.68
			c0-0.01-0.01-0.01-0.01,0l-0.32,0.99c0,0.01-0.01,0.01-0.02,0.01h-1.04c-0.01,0-0.01,0,0,0.01l0.84,0.61
			c0.01,0.01,0.01,0.02,0.01,0.02l-0.32,0.99c0,0.01,0,0.01,0.01,0.01l0.84-0.61c0.01-0.01,0.02-0.01,0.03,0l0.84,0.61
			c0.01,0.01,0.01,0,0.01-0.01l-0.32-0.99c0-0.01,0-0.02,0.01-0.02L45.39,85.69z"/>
		<path d="M101.59,85.65c0.01-0.01,0.01-0.01,0-0.01h-1.19c-0.01,0-0.02-0.01-0.02-0.02l-0.37-1.13c0-0.01-0.01-0.01-0.01,0
			l-0.37,1.13c0,0.01-0.01,0.02-0.02,0.02h-1.19c-0.01,0-0.01,0,0,0.01l0.96,0.7c0.01,0.01,0.01,0.02,0.01,0.03l-0.37,1.13
			c0,0.01,0,0.01,0.01,0.01l0.96-0.7c0.01-0.01,0.02-0.01,0.03,0l0.96,0.7c0.01,0.01,0.01,0,0.01-0.01l-0.37-1.13
			c0-0.01,0-0.02,0.01-0.03L101.59,85.65z"/>
		<path d="M116.4,85.47c0.01-0.01,0.01-0.02-0.01-0.02h-1.79c-0.01,0-0.03-0.01-0.04-0.03l-0.55-1.71c0-0.01-0.01-0.01-0.02,0
			l-0.55,1.71c0,0.01-0.02,0.03-0.04,0.03h-1.79c-0.01,0-0.02,0.01-0.01,0.02l1.45,1.05c0.01,0.01,0.02,0.03,0.01,0.04l-0.55,1.71
			c0,0.01,0,0.02,0.01,0.01l1.45-1.05c0.01-0.01,0.03-0.01,0.04,0l1.45,1.05c0.01,0.01,0.02,0,0.01-0.01l-0.55-1.71
			c0-0.01,0-0.03,0.01-0.04L116.4,85.47z"/>
		<path d="M131.54,85.19h-2.65c-0.02,0-0.05-0.02-0.05-0.04l-0.82-2.52c-0.01-0.02-0.02-0.02-0.02,0l-0.82,2.52
			c-0.01,0.02-0.03,0.04-0.05,0.04l-2.65,0c-0.02,0-0.03,0.01-0.01,0.02l2.15,1.56c0.02,0.01,0.03,0.04,0.02,0.06l-0.82,2.52
			c-0.01,0.02,0,0.03,0.02,0.01l2.15-1.56c0.02-0.01,0.05-0.01,0.06,0l2.15,1.56c0.02,0.01,0.03,0.01,0.02-0.01l-0.82-2.52
			c-0.01-0.02,0-0.05,0.02-0.06l2.15-1.56C131.56,85.2,131.56,85.19,131.54,85.19z"/>
		<path d="M139.09,90.51l2.87-2.08c0.02-0.02,0.06-0.02,0.09,0l1.96,1.42v-2.24l-0.16-0.49c-0.01-0.03,0-0.06,0.03-0.08l0.13-0.1
			v-2.02h-0.82c-0.03,0-0.06-0.02-0.07-0.05l-1.1-3.37c-0.01-0.03-0.02-0.03-0.03,0l-1.1,3.37c-0.01,0.03-0.04,0.05-0.07,0.05h-3.54
			c-0.03,0-0.03,0.01-0.01,0.03l2.87,2.08c0.02,0.02,0.04,0.05,0.03,0.08l-1.1,3.37C139.05,90.52,139.07,90.53,139.09,90.51z"/>
		<path d="M11.87,99.35H9.72c-0.02,0-0.04-0.01-0.04-0.03l-0.66-2.04C9,97.25,9,97.25,8.99,97.27l-0.66,2.04
			c-0.01,0.02-0.02,0.03-0.04,0.03H6.13c-0.02,0-0.02,0.01-0.01,0.02l1.74,1.26c0.01,0.01,0.02,0.03,0.02,0.05l-0.66,2.04
			c-0.01,0.02,0,0.02,0.02,0.01l1.74-1.26c0.01-0.01,0.04-0.01,0.05,0l1.74,1.26c0.01,0.01,0.02,0.01,0.02-0.01l-0.66-2.04
			c-0.01-0.02,0-0.04,0.02-0.05l1.74-1.26C11.89,99.36,11.88,99.35,11.87,99.35z"/>
		<path d="M24.71,99.61h-1.28c-0.01,0-0.02-0.01-0.03-0.02l-0.4-1.22c0-0.01-0.01-0.01-0.01,0l-0.4,1.22c0,0.01-0.01,0.02-0.03,0.02
			h-1.28c-0.01,0-0.01,0.01,0,0.01l1.04,0.75c0.01,0.01,0.01,0.02,0.01,0.03l-0.4,1.22c0,0.01,0,0.01,0.01,0.01l1.04-0.75
			c0.01-0.01,0.02-0.01,0.03,0l1.04,0.75c0.01,0.01,0.01,0,0.01-0.01l-0.4-1.22c0-0.01,0-0.02,0.01-0.03l1.04-0.75
			C24.72,99.62,24.72,99.61,24.71,99.61z"/>
		<path d="M38.04,99.77C38.04,99.77,38.04,99.76,38.04,99.77l-0.78-0.01c-0.01,0-0.01-0.01-0.02-0.01L37,99.01
			c0-0.01-0.01-0.01-0.01,0l-0.24,0.74c0,0.01-0.01,0.01-0.02,0.01h-0.78c-0.01,0-0.01,0,0,0.01l0.63,0.46
			c0.01,0,0.01,0.01,0.01,0.02l-0.24,0.74c0,0.01,0,0.01,0.01,0l0.63-0.46c0.01,0,0.01,0,0.02,0l0.63,0.46c0.01,0,0.01,0,0.01,0
			l-0.24-0.74c0-0.01,0-0.01,0.01-0.02L38.04,99.77z"/>
		<path d="M108.2,99.73C108.21,99.73,108.21,99.73,108.2,99.73l-0.9-0.01c-0.01,0-0.02-0.01-0.02-0.01L107,98.86
			c0-0.01-0.01-0.01-0.01,0l-0.28,0.86c0,0.01-0.01,0.01-0.02,0.01h-0.9c-0.01,0-0.01,0,0,0.01l0.73,0.53
			c0.01,0,0.01,0.01,0.01,0.02l-0.28,0.86c0,0.01,0,0.01,0.01,0l0.73-0.53c0.01,0,0.02,0,0.02,0l0.73,0.53c0.01,0,0.01,0,0.01,0
			l-0.28-0.86c0-0.01,0-0.02,0.01-0.02L108.2,99.73z"/>
		<path d="M123.1,99.52h-1.57c-0.01,0-0.03-0.01-0.03-0.02l-0.49-1.5c0-0.01-0.01-0.01-0.01,0l-0.49,1.5c0,0.01-0.02,0.02-0.03,0.02
			h-1.57c-0.01,0-0.02,0.01,0,0.01l1.27,0.93c0.01,0.01,0.02,0.02,0.01,0.04l-0.49,1.5c0,0.01,0,0.02,0.01,0.01l1.27-0.93
			c0.01-0.01,0.03-0.01,0.04,0l1.27,0.93c0.01,0.01,0.02,0,0.01-0.01l-0.49-1.5c0-0.01,0-0.03,0.01-0.04l1.27-0.93
			C123.11,99.53,123.11,99.52,123.1,99.52z"/>
		<path d="M138.4,99.23h-2.55c-0.02,0-0.04-0.02-0.05-0.04l-0.79-2.42c-0.01-0.02-0.02-0.02-0.02,0l-0.79,2.43
			c-0.01,0.02-0.03,0.04-0.05,0.04h-2.55c-0.02,0-0.02,0.01-0.01,0.02l2.06,1.5c0.02,0.01,0.03,0.04,0.02,0.06l-0.79,2.43
			c-0.01,0.02,0,0.03,0.02,0.01l2.06-1.5c0.02-0.01,0.05-0.01,0.06,0l2.06,1.5c0.02,0.01,0.03,0.01,0.02-0.01l-0.79-2.43
			c-0.01-0.02,0-0.05,0.02-0.06l2.06-1.5C138.42,99.24,138.42,99.23,138.4,99.23z"/>
		<path d="M5.18,113.3c0.02-0.01,0.01-0.02-0.01-0.02H2.79c-0.02,0-0.04-0.02-0.05-0.03l-0.73-2.26c-0.01-0.02-0.02-0.02-0.02,0
			l-0.73,2.26c-0.01,0.02-0.03,0.03-0.05,0.03H0v0.88l0.75,0.54c0.02,0.01,0.02,0.04,0.02,0.06l-0.73,2.26
			c-0.01,0.02,0,0.02,0.02,0.01l1.92-1.4c0.02-0.01,0.04-0.01,0.06,0l1.92,1.4c0.02,0.01,0.02,0.01,0.02-0.01l-0.73-2.26
			c-0.01-0.02,0-0.04,0.02-0.06L5.18,113.3z"/>
		<path d="M17.86,113.59c0.01-0.01,0.01-0.01,0-0.01h-1.39c-0.01,0-0.02-0.01-0.03-0.02l-0.43-1.33c0-0.01-0.01-0.01-0.01,0
			l-0.43,1.33c0,0.01-0.02,0.02-0.03,0.02h-1.39c-0.01,0-0.01,0.01,0,0.01l1.13,0.82c0.01,0.01,0.01,0.02,0.01,0.03l-0.43,1.33
			c0,0.01,0,0.01,0.01,0.01l1.13-0.82c0.01-0.01,0.02-0.01,0.03,0l1.13,0.82c0.01,0.01,0.01,0,0.01-0.01l-0.43-1.33
			c0-0.01,0-0.03,0.01-0.03L17.86,113.59z"/>
		<path d="M31.02,113.78C31.02,113.77,31.02,113.77,31.02,113.78l-0.76-0.01c-0.01,0-0.01,0-0.02-0.01L30,113.03
			c0-0.01-0.01-0.01-0.01,0l-0.24,0.72c0,0.01-0.01,0.01-0.02,0.01h-0.76c-0.01,0-0.01,0,0,0.01l0.62,0.45
			c0.01,0,0.01,0.01,0.01,0.02l-0.24,0.72c0,0.01,0,0.01,0.01,0l0.62-0.45c0.01,0,0.01,0,0.02,0l0.62,0.45c0.01,0,0.01,0,0.01,0
			l-0.24-0.72c0-0.01,0-0.01,0.01-0.02L31.02,113.78z"/>
		<path d="M115.17,113.74C115.18,113.74,115.18,113.73,115.17,113.74l-0.88-0.01c-0.01,0-0.02-0.01-0.02-0.01l-0.27-0.83
			c0-0.01-0.01-0.01-0.01,0l-0.27,0.83c0,0.01-0.01,0.01-0.02,0.01h-0.88c-0.01,0-0.01,0,0,0.01l0.71,0.52
			c0.01,0,0.01,0.01,0.01,0.02l-0.27,0.83c0,0.01,0,0.01,0.01,0l0.71-0.52c0.01,0,0.02,0,0.02,0l0.71,0.52c0.01,0,0.01,0,0.01,0
			l-0.27-0.83c0-0.01,0-0.02,0.01-0.02L115.17,113.74z"/>
		<path d="M130.22,113.51c0.01-0.01,0.01-0.01,0-0.01h-1.66c-0.01,0-0.03-0.01-0.03-0.02l-0.51-1.58c0-0.01-0.01-0.01-0.02,0
			l-0.51,1.58c0,0.01-0.02,0.02-0.03,0.02h-1.66c-0.01,0-0.02,0.01,0,0.01l1.35,0.98c0.01,0.01,0.02,0.03,0.01,0.04l-0.51,1.58
			c0,0.01,0,0.02,0.01,0.01l1.35-0.98c0.01-0.01,0.03-0.01,0.04,0l1.35,0.98c0.01,0.01,0.02,0,0.01-0.01l-0.51-1.58
			c0-0.01,0-0.03,0.01-0.04L130.22,113.51z"/>
		<path d="M139.73,117.52l2.24-1.63c0.02-0.01,0.05-0.01,0.07,0l1.97,1.43v-0.72l-0.56-1.73c-0.01-0.02,0-0.05,0.02-0.06l0.54-0.39
			v-1.26h-1.08c-0.02,0-0.05-0.02-0.05-0.04l-0.86-2.63c-0.01-0.02-0.02-0.02-0.03,0l-0.86,2.63c-0.01,0.02-0.03,0.04-0.05,0.04
			h-2.77c-0.02,0-0.03,0.01-0.01,0.02l2.24,1.63c0.02,0.01,0.03,0.04,0.02,0.06l-0.85,2.63
			C139.7,117.53,139.71,117.53,139.73,117.52z"/>
		<path d="M11.47,127.45c0.01-0.01,0.01-0.02-0.01-0.02H9.62c-0.02,0-0.03-0.01-0.04-0.03l-0.57-1.76c0-0.01-0.01-0.01-0.02,0
			l-0.57,1.76c0,0.01-0.02,0.03-0.04,0.03H6.53c-0.02,0-0.02,0.01-0.01,0.02l1.5,1.09c0.01,0.01,0.02,0.03,0.01,0.04l-0.57,1.76
			c0,0.01,0,0.02,0.01,0.01l1.5-1.09c0.01-0.01,0.03-0.01,0.05,0l1.5,1.09c0.01,0.01,0.02,0,0.01-0.01l-0.57-1.76
			c0-0.01,0-0.03,0.01-0.04L11.47,127.45z"/>
		<path d="M24.32,127.71C24.33,127.7,24.33,127.7,24.32,127.71l-0.99-0.01c-0.01,0-0.02-0.01-0.02-0.01L23,126.74
			c0-0.01-0.01-0.01-0.01,0l-0.31,0.94c0,0.01-0.01,0.01-0.02,0.01h-0.99c-0.01,0-0.01,0,0,0.01l0.8,0.58
			c0.01,0,0.01,0.02,0.01,0.02l-0.31,0.94c0,0.01,0,0.01,0.01,0.01l0.8-0.58c0.01,0,0.02,0,0.02,0l0.8,0.58c0.01,0,0.01,0,0.01-0.01
			l-0.31-0.94c0-0.01,0-0.02,0.01-0.02L24.32,127.71z"/>
		<path d="M122.5,127.67C122.51,127.66,122.51,127.66,122.5,127.67l-1.13-0.01c-0.01,0-0.02-0.01-0.02-0.02l-0.35-1.07
			c0-0.01-0.01-0.01-0.01,0l-0.35,1.07c0,0.01-0.01,0.02-0.02,0.02h-1.12c-0.01,0-0.01,0,0,0.01l0.91,0.66
			c0.01,0.01,0.01,0.02,0.01,0.03l-0.35,1.07c0,0.01,0,0.01,0.01,0.01l0.91-0.66c0.01-0.01,0.02-0.01,0.03,0l0.91,0.66
			c0.01,0.01,0.01,0,0.01-0.01l-0.35-1.07c0-0.01,0-0.02,0.01-0.03L122.5,127.67z"/>
		<path d="M137.76,127.39c0.01-0.01,0.01-0.02-0.01-0.02h-2.07c-0.02,0-0.04-0.01-0.04-0.03l-0.64-1.97c-0.01-0.02-0.01-0.02-0.02,0
			l-0.64,1.97c-0.01,0.02-0.02,0.03-0.04,0.03h-2.07c-0.02,0-0.02,0.01-0.01,0.02l1.67,1.22c0.01,0.01,0.02,0.03,0.02,0.05
			l-0.64,1.97c-0.01,0.02,0,0.02,0.02,0.01l1.67-1.22c0.01-0.01,0.04-0.01,0.05,0l1.67,1.22c0.01,0.01,0.02,0.01,0.02-0.01
			l-0.64-1.97c-0.01-0.02,0-0.04,0.02-0.05L137.76,127.39z"/>
		<path d="M5.46,141.24c0.02-0.01,0.01-0.02-0.01-0.02H2.86c-0.02,0-0.04-0.02-0.05-0.04l-0.8-2.46c-0.01-0.02-0.02-0.02-0.02,0
			l-0.8,2.46c-0.01,0.02-0.03,0.04-0.05,0.04H0v1.08l0.64,0.46c0.02,0.01,0.03,0.04,0.02,0.06L0,144.83v0.37l1.97-1.43
			c0.02-0.01,0.05-0.01,0.06,0l2.09,1.52c0.02,0.01,0.03,0.01,0.02-0.01l-0.8-2.46c-0.01-0.02,0-0.05,0.02-0.06L5.46,141.24z"/>
		<path d="M18.13,141.53c0.01-0.01,0.01-0.01,0-0.01h-1.59c-0.01,0-0.03-0.01-0.03-0.02l-0.49-1.51c0-0.01-0.01-0.01-0.01,0
			l-0.49,1.51c0,0.01-0.02,0.02-0.03,0.02h-1.59c-0.01,0-0.02,0.01,0,0.01l1.29,0.94c0.01,0.01,0.02,0.02,0.01,0.04l-0.49,1.51
			c0,0.01,0,0.02,0.01,0.01l1.29-0.94c0.01-0.01,0.03-0.01,0.04,0l1.29,0.94c0.01,0.01,0.02,0,0.01-0.01l-0.49-1.51
			c0-0.01,0-0.03,0.01-0.04L18.13,141.53z"/>
		<path d="M31.15,141.75C31.15,141.74,31.15,141.74,31.15,141.75l-0.86-0.01c-0.01,0-0.01-0.01-0.02-0.01L30,140.91
			c0-0.01-0.01-0.01-0.01,0l-0.26,0.82c0,0.01-0.01,0.01-0.02,0.01h-0.86c-0.01,0-0.01,0,0,0.01l0.69,0.5
			c0.01,0,0.01,0.01,0.01,0.02l-0.26,0.82c0,0.01,0,0.01,0.01,0l0.69-0.5c0.01,0,0.02,0,0.02,0l0.69,0.5c0.01,0,0.01,0,0.01,0
			l-0.26-0.82c0-0.01,0-0.02,0.01-0.02L31.15,141.75z"/>
		<path d="M115.21,141.73C115.22,141.73,115.22,141.72,115.21,141.73l-0.91-0.01c-0.01,0-0.02-0.01-0.02-0.01l-0.28-0.86
			c0-0.01-0.01-0.01-0.01,0l-0.28,0.86c0,0.01-0.01,0.01-0.02,0.01h-0.91c-0.01,0-0.01,0,0,0.01l0.73,0.53
			c0.01,0,0.01,0.01,0.01,0.02l-0.28,0.86c0,0.01,0,0.01,0.01,0l0.73-0.53c0.01,0,0.02,0,0.02,0l0.73,0.53c0.01,0,0.01,0,0.01,0
			l-0.28-0.86c0-0.01,0-0.02,0.01-0.02L115.21,141.73z"/>
		<path d="M130.27,141.5c0.01-0.01,0.01-0.02,0-0.02h-1.7c-0.01,0-0.03-0.01-0.03-0.02l-0.52-1.61c0-0.01-0.01-0.01-0.02,0
			l-0.52,1.61c0,0.01-0.02,0.02-0.03,0.02h-1.7c-0.01,0-0.02,0.01,0,0.02l1.37,1c0.01,0.01,0.02,0.03,0.01,0.04l-0.52,1.61
			c0,0.01,0,0.02,0.01,0.01l1.37-1c0.01-0.01,0.03-0.01,0.04,0l1.37,1c0.01,0.01,0.02,0,0.01-0.01l-0.52-1.61
			c0-0.01,0-0.03,0.01-0.04L130.27,141.5z"/>
		<path d="M139.69,145.58l2.27-1.65c0.02-0.01,0.05-0.01,0.07,0l1.97,1.43v-0.8l-0.54-1.66c-0.01-0.02,0-0.05,0.02-0.07l0.52-0.38
			v-1.3h-1.06c-0.02,0-0.05-0.02-0.06-0.04l-0.87-2.67c-0.01-0.02-0.02-0.02-0.03,0l-0.87,2.67c-0.01,0.02-0.03,0.04-0.06,0.04
			h-2.81c-0.02,0-0.03,0.01-0.01,0.02l2.27,1.65c0.02,0.01,0.03,0.04,0.02,0.07l-0.87,2.67
			C139.66,145.58,139.67,145.59,139.69,145.58z"/>
		<path d="M12.41,155.25c0.02-0.01,0.01-0.02-0.01-0.02H9.85c-0.02,0-0.04-0.02-0.05-0.04l-0.79-2.43c-0.01-0.02-0.02-0.02-0.02,0
			l-0.79,2.43c-0.01,0.02-0.03,0.04-0.05,0.04H5.6c-0.02,0-0.02,0.01-0.01,0.02l2.07,1.5c0.02,0.01,0.03,0.04,0.02,0.06l-0.79,2.43
			c-0.01,0.02,0,0.03,0.02,0.01l2.07-1.5c0.02-0.01,0.05-0.01,0.06,0l2.07,1.5c0.02,0.01,0.03,0.01,0.02-0.01l-0.79-2.43
			c-0.01-0.02,0-0.05,0.02-0.06L12.41,155.25z"/>
		<path d="M25.19,155.52c0.01-0.01,0.01-0.01,0-0.01h-1.64c-0.01,0-0.03-0.01-0.03-0.02l-0.51-1.56c0-0.01-0.01-0.01-0.02,0
			l-0.51,1.56c0,0.01-0.02,0.02-0.03,0.02h-1.64c-0.01,0-0.02,0.01,0,0.01l1.33,0.96c0.01,0.01,0.02,0.03,0.01,0.04l-0.51,1.56
			c0,0.01,0,0.02,0.01,0.01l1.33-0.96c0.01-0.01,0.03-0.01,0.04,0l1.33,0.96c0.01,0.01,0.02,0,0.01-0.01l-0.51-1.56
			c0-0.01,0-0.03,0.01-0.04L25.19,155.52z"/>
		<path d="M38.3,155.71C38.31,155.71,38.3,155.7,38.3,155.71l-0.98-0.01c-0.01,0-0.02-0.01-0.02-0.01l-0.3-0.92
			c0-0.01-0.01-0.01-0.01,0l-0.3,0.92c0,0.01-0.01,0.01-0.02,0.01H35.7c-0.01,0-0.01,0,0,0.01l0.79,0.57c0.01,0,0.01,0.01,0.01,0.02
			l-0.3,0.92c0,0.01,0,0.01,0.01,0.01l0.79-0.57c0.01,0,0.02,0,0.02,0l0.79,0.57c0.01,0,0.01,0,0.01-0.01l-0.3-0.92
			c0-0.01,0-0.02,0.01-0.02L38.3,155.71z"/>
		<path d="M108.29,155.71C108.3,155.71,108.3,155.71,108.29,155.71l-0.97-0.01c-0.01,0-0.02-0.01-0.02-0.01l-0.3-0.92
			c0-0.01-0.01-0.01-0.01,0l-0.3,0.92c0,0.01-0.01,0.01-0.02,0.01h-0.97c-0.01,0-0.01,0,0,0.01l0.78,0.57
			c0.01,0,0.01,0.01,0.01,0.02l-0.3,0.92c0,0.01,0,0.01,0.01,0.01l0.78-0.57c0.01,0,0.02,0,0.02,0l0.78,0.57
			c0.01,0,0.01,0,0.01-0.01l-0.3-0.92c0-0.01,0-0.02,0.01-0.02L108.29,155.71z"/>
		<path d="M123.21,155.51c0.01-0.01,0.01-0.01,0-0.01h-1.65c-0.01,0-0.03-0.01-0.03-0.02l-0.51-1.57c0-0.01-0.01-0.01-0.02,0
			l-0.51,1.57c0,0.01-0.02,0.02-0.03,0.02h-1.65c-0.01,0-0.02,0.01,0,0.01l1.34,0.97c0.01,0.01,0.02,0.03,0.01,0.04l-0.51,1.57
			c0,0.01,0,0.02,0.01,0.01l1.34-0.97c0.01-0.01,0.03-0.01,0.04,0l1.34,0.97c0.01,0.01,0.02,0,0.01-0.01l-0.51-1.57
			c0-0.01,0-0.03,0.01-0.04L123.21,155.51z"/>
		<path d="M138.55,155.22c0.02-0.01,0.01-0.02-0.01-0.02h-2.66c-0.02,0-0.05-0.02-0.05-0.04l-0.82-2.53c-0.01-0.02-0.02-0.02-0.02,0
			l-0.82,2.53c-0.01,0.02-0.03,0.04-0.05,0.04h-2.66c-0.02,0-0.03,0.01-0.01,0.02l2.15,1.56c0.02,0.01,0.03,0.04,0.02,0.06
			l-0.82,2.53c-0.01,0.02,0,0.03,0.02,0.01l2.15-1.56c0.02-0.01,0.05-0.01,0.06,0l2.15,1.56c0.02,0.01,0.03,0.01,0.02-0.01
			l-0.82-2.53c-0.01-0.02,0-0.05,0.02-0.06L138.55,155.22z"/>
		<path d="M2.04,172.42l2.86,2.07c0.02,0.02,0.04,0.01,0.03-0.02l-1.09-3.36c-0.01-0.03,0-0.06,0.03-0.08l2.86-2.07
			c0.02-0.02,0.02-0.03-0.01-0.03H3.18c-0.03,0-0.06-0.02-0.07-0.05l-1.09-3.36c-0.01-0.03-0.02-0.03-0.03,0l-1.09,3.36
			c-0.01,0.03-0.04,0.05-0.07,0.05H0v2.01l0.14,0.1c0.02,0.02,0.04,0.05,0.03,0.08L0,171.62v2.21l1.96-1.42
			C1.98,172.4,2.02,172.4,2.04,172.42z"/>
		<path d="M19.7,169.18c0.02-0.01,0.01-0.02-0.01-0.02h-2.77c-0.02,0-0.05-0.02-0.05-0.04l-0.85-2.63c-0.01-0.02-0.02-0.02-0.03,0
			l-0.85,2.63c-0.01,0.02-0.03,0.04-0.05,0.04l-2.77,0c-0.02,0-0.03,0.01-0.01,0.02l2.24,1.63c0.02,0.01,0.03,0.04,0.02,0.06
			l-0.85,2.63c-0.01,0.02,0,0.03,0.02,0.02l2.24-1.63c0.02-0.01,0.05-0.01,0.07,0l2.24,1.63c0.02,0.01,0.03,0.01,0.02-0.02
			l-0.85-2.63c-0.01-0.02,0-0.05,0.02-0.06L19.7,169.18z"/>
		<path d="M32.68,169.41c0.01-0.01,0.01-0.02-0.01-0.02h-2c-0.02,0-0.03-0.01-0.04-0.03l-0.62-1.9c-0.01-0.02-0.01-0.02-0.02,0
			l-0.62,1.9c-0.01,0.02-0.02,0.03-0.04,0.03h-2c-0.02,0-0.02,0.01-0.01,0.02l1.62,1.18c0.01,0.01,0.02,0.03,0.02,0.05l-0.62,1.9
			c-0.01,0.02,0,0.02,0.02,0.01l1.62-1.18c0.01-0.01,0.04-0.01,0.05,0l1.62,1.18c0.01,0.01,0.02,0,0.02-0.01l-0.62-1.9
			c-0.01-0.02,0-0.04,0.02-0.05L32.68,169.41z"/>
		<path d="M45.83,169.6c0.01-0.01,0.01-0.01,0-0.01h-1.37c-0.01,0-0.02-0.01-0.03-0.02l-0.42-1.3c0-0.01-0.01-0.01-0.01,0l-0.42,1.3
			c0,0.01-0.02,0.02-0.03,0.02h-1.37c-0.01,0-0.01,0.01,0,0.01l1.11,0.8c0.01,0.01,0.01,0.02,0.01,0.03l-0.42,1.3
			c0,0.01,0,0.01,0.01,0.01l1.11-0.8c0.01-0.01,0.02-0.01,0.03,0l1.11,0.8c0.01,0.01,0.01,0,0.01-0.01l-0.42-1.3
			c0-0.01,0-0.03,0.01-0.03L45.83,169.6z"/>
		<path d="M59.36,169.7C59.37,169.69,59.37,169.69,59.36,169.7l-1.02-0.01c-0.01,0-0.02-0.01-0.02-0.01L58,168.7
			c0-0.01-0.01-0.01-0.01,0l-0.32,0.97c0,0.01-0.01,0.01-0.02,0.01h-1.02c-0.01,0-0.01,0,0,0.01l0.83,0.6
			c0.01,0.01,0.01,0.02,0.01,0.02l-0.32,0.97c0,0.01,0,0.01,0.01,0.01l0.83-0.6c0.01-0.01,0.02-0.01,0.02,0l0.83,0.6
			c0.01,0,0.01,0,0.01-0.01l-0.32-0.97c0-0.01,0-0.02,0.01-0.02L59.36,169.7z"/>
		<path d="M73.22,169.73C73.23,169.73,73.22,169.72,73.22,169.73l-0.92-0.01c-0.01,0-0.02-0.01-0.02-0.01L72,168.84
			c0-0.01-0.01-0.01-0.01,0l-0.28,0.87c0,0.01-0.01,0.01-0.02,0.01h-0.91c-0.01,0-0.01,0,0,0.01l0.74,0.54
			c0.01,0,0.01,0.01,0.01,0.02l-0.28,0.87c0,0.01,0,0.01,0.01,0.01l0.74-0.54c0.01,0,0.02,0,0.02,0l0.74,0.54
			c0.01,0,0.01,0,0.01-0.01l-0.28-0.87c0-0.01,0-0.02,0.01-0.02L73.22,169.73z"/>
		<path d="M87.34,169.7C87.35,169.7,87.35,169.69,87.34,169.7l-1.01-0.01c-0.01,0-0.02-0.01-0.02-0.01L86,168.72
			c0-0.01-0.01-0.01-0.01,0l-0.31,0.96c0,0.01-0.01,0.01-0.02,0.01h-1.01c-0.01,0-0.01,0,0,0.01l0.81,0.59
			c0.01,0,0.01,0.02,0.01,0.02l-0.31,0.96c0,0.01,0,0.01,0.01,0.01l0.81-0.59c0.01,0,0.02,0,0.02,0l0.81,0.59
			c0.01,0,0.01,0,0.01-0.01l-0.31-0.96c0-0.01,0-0.02,0.01-0.02L87.34,169.7z"/>
		<path d="M101.78,169.61c0.01-0.01,0.01-0.01,0-0.01h-1.33c-0.01,0-0.02-0.01-0.03-0.02l-0.41-1.27c0-0.01-0.01-0.01-0.01,0
			l-0.41,1.27c0,0.01-0.02,0.02-0.03,0.02h-1.33c-0.01,0-0.01,0.01,0,0.01l1.08,0.78c0.01,0.01,0.01,0.02,0.01,0.03l-0.41,1.27
			c0,0.01,0,0.01,0.01,0.01l1.08-0.78c0.01-0.01,0.02-0.01,0.03,0l1.08,0.78c0.01,0.01,0.01,0,0.01-0.01l-0.41-1.27
			c0-0.01,0-0.02,0.01-0.03L101.78,169.61z"/>
		<path d="M116.58,169.43c0.01-0.01,0.01-0.02-0.01-0.02h-1.93c-0.02,0-0.03-0.01-0.04-0.03l-0.6-1.84c0-0.02-0.01-0.02-0.02,0
			l-0.6,1.84c0,0.02-0.02,0.03-0.04,0.03h-1.93c-0.02,0-0.02,0.01-0.01,0.02l1.56,1.14c0.01,0.01,0.02,0.03,0.01,0.04l-0.6,1.84
			c0,0.02,0,0.02,0.01,0.01l1.56-1.14c0.01-0.01,0.03-0.01,0.05,0l1.56,1.14c0.01,0.01,0.02,0,0.01-0.01l-0.6-1.84
			c-0.01-0.02,0-0.04,0.01-0.04L116.58,169.43z"/>
		<path d="M125.74,173.5l2.23-1.62c0.02-0.01,0.05-0.01,0.07,0l2.23,1.62c0.02,0.01,0.03,0.01,0.02-0.02l-0.85-2.62
			c-0.01-0.02,0-0.05,0.02-0.06l2.23-1.62c0.02-0.01,0.01-0.02-0.01-0.02h-2.75c-0.02,0-0.05-0.02-0.05-0.04l-0.85-2.62
			c-0.01-0.02-0.02-0.02-0.03,0l-0.85,2.62c-0.01,0.02-0.03,0.04-0.05,0.04h-2.75c-0.02,0-0.03,0.01-0.01,0.02l2.23,1.62
			c0.02,0.01,0.03,0.04,0.02,0.06l-0.85,2.62C125.71,173.51,125.72,173.51,125.74,173.5z"/>
		<path d="M142.04,172.4l1.96,1.42v-2.17l-0.18-0.55c-0.01-0.03,0-0.06,0.03-0.08l0.15-0.11v-1.98h-0.83
			c-0.03,0-0.06-0.02-0.07-0.05l-1.08-3.33c-0.01-0.03-0.02-0.03-0.03,0l-1.08,3.33c-0.01,0.03-0.04,0.05-0.07,0.05h-3.51
			c-0.03,0-0.03,0.01-0.01,0.03l2.84,2.06c0.02,0.02,0.04,0.05,0.03,0.08l-1.08,3.33c-0.01,0.03,0,0.04,0.03,0.02l2.84-2.06
			C141.98,172.38,142.02,172.38,142.04,172.4z"/>
		<path d="M0.58,182.73H0v0.47l0.59-0.43C0.62,182.74,0.62,182.73,0.58,182.73z"/>
		<path d="M14.01,182.9c0.03-0.02,0.02-0.03-0.01-0.03h-3.75c-0.03,0-0.06-0.02-0.07-0.05l-1.16-3.56c-0.01-0.03-0.03-0.03-0.03,0
			l-1.16,3.56c-0.01,0.03-0.04,0.05-0.07,0.05H4.01c-0.03,0-0.04,0.01-0.01,0.03l3.03,2.2c0.03,0.02,0.04,0.06,0.03,0.09l-1.16,3.56
			c-0.01,0.03,0,0.04,0.03,0.02l3.03-2.2c0.03-0.02,0.07-0.02,0.09,0l3.03,2.2c0.03,0.02,0.04,0.01,0.03-0.02l-1.16-3.56
			c-0.01-0.03,0-0.07,0.03-0.09L14.01,182.9z"/>
		<path d="M27.25,183.06c0.02-0.02,0.02-0.03-0.01-0.03h-3.18c-0.03,0-0.05-0.02-0.06-0.05l-0.98-3.02c-0.01-0.03-0.02-0.03-0.03,0
			L22,182.99c-0.01,0.03-0.04,0.05-0.06,0.05h-3.18c-0.03,0-0.03,0.01-0.01,0.03l2.57,1.87c0.02,0.02,0.03,0.05,0.02,0.07
			l-0.98,3.02c-0.01,0.03,0,0.03,0.02,0.02l2.57-1.87c0.02-0.02,0.06-0.02,0.08,0l2.57,1.87c0.02,0.02,0.03,0.01,0.02-0.02
			L24.65,185c-0.01-0.03,0-0.06,0.02-0.07L27.25,183.06z"/>
		<path d="M40.46,183.24c0.02-0.01,0.01-0.02-0.01-0.02h-2.59c-0.02,0-0.04-0.02-0.05-0.04l-0.8-2.46c-0.01-0.02-0.02-0.02-0.02,0
			l-0.8,2.46c-0.01,0.02-0.03,0.04-0.05,0.04h-2.59c-0.02,0-0.02,0.01-0.01,0.02l2.1,1.52c0.02,0.01,0.03,0.04,0.02,0.06l-0.8,2.46
			c-0.01,0.02,0,0.03,0.02,0.01l2.1-1.52c0.02-0.01,0.05-0.01,0.06,0l2.1,1.52c0.02,0.01,0.03,0.01,0.02-0.01l-0.8-2.46
			c-0.01-0.02,0-0.05,0.02-0.06L40.46,183.24z"/>
		<path d="M53.83,183.37c0.01-0.01,0.01-0.02-0.01-0.02h-2.12c-0.02,0-0.04-0.01-0.04-0.03l-0.66-2.02c-0.01-0.02-0.01-0.02-0.02,0
			l-0.66,2.02c-0.01,0.02-0.02,0.03-0.04,0.03h-2.12c-0.02,0-0.02,0.01-0.01,0.02l1.72,1.25c0.01,0.01,0.02,0.03,0.02,0.05
			l-0.66,2.02c-0.01,0.02,0,0.02,0.02,0.01l1.72-1.25c0.01-0.01,0.04-0.01,0.05,0l1.72,1.25c0.01,0.01,0.02,0.01,0.02-0.01
			l-0.66-2.02c-0.01-0.02,0-0.04,0.02-0.05L53.83,183.37z"/>
		<path d="M67.48,183.45c0.01-0.01,0.01-0.02-0.01-0.02h-1.85c-0.02,0-0.03-0.01-0.04-0.03l-0.57-1.76c0-0.01-0.01-0.01-0.02,0
			l-0.57,1.76c0,0.01-0.02,0.03-0.04,0.03h-1.85c-0.02,0-0.02,0.01-0.01,0.02l1.5,1.09c0.01,0.01,0.02,0.03,0.01,0.04l-0.57,1.76
			c0,0.01,0,0.02,0.01,0.01l1.5-1.09c0.01-0.01,0.03-0.01,0.05,0l1.5,1.09c0.01,0.01,0.02,0,0.01-0.01l-0.57-1.76
			c0-0.01,0-0.03,0.01-0.04L67.48,183.45z"/>
		<path d="M81.45,183.46c0.01-0.01,0.01-0.02-0.01-0.02h-1.84c-0.02,0-0.03-0.01-0.04-0.03l-0.57-1.75c0-0.01-0.01-0.01-0.02,0
			l-0.57,1.75c0,0.01-0.02,0.03-0.04,0.03h-1.84c-0.02,0-0.02,0.01-0.01,0.02l1.49,1.08c0.01,0.01,0.02,0.03,0.01,0.04l-0.57,1.75
			c0,0.01,0,0.02,0.01,0.01l1.49-1.08c0.01-0.01,0.03-0.01,0.04,0l1.49,1.08c0.01,0.01,0.02,0,0.01-0.01l-0.57-1.75
			c0-0.01,0-0.03,0.01-0.04L81.45,183.46z"/>
		<path d="M95.76,183.39c0.01-0.01,0.01-0.02-0.01-0.02h-2.07c-0.02,0-0.04-0.01-0.04-0.03l-0.64-1.97c-0.01-0.02-0.01-0.02-0.02,0
			l-0.64,1.97c-0.01,0.02-0.02,0.03-0.04,0.03h-2.07c-0.02,0-0.02,0.01-0.01,0.02l1.67,1.22c0.01,0.01,0.02,0.03,0.02,0.05
			l-0.64,1.97c-0.01,0.02,0,0.02,0.02,0.01l1.67-1.22c0.01-0.01,0.04-0.01,0.05,0l1.67,1.22c0.01,0.01,0.02,0.01,0.02-0.01
			l-0.64-1.97c-0.01-0.02,0-0.04,0.02-0.05L95.76,183.39z"/>
		<path d="M110.37,183.26c0.02-0.01,0.01-0.02-0.01-0.02h-2.52c-0.02,0-0.04-0.02-0.05-0.04l-0.78-2.4c-0.01-0.02-0.02-0.02-0.02,0
			l-0.78,2.4c-0.01,0.02-0.03,0.04-0.05,0.04h-2.52c-0.02,0-0.02,0.01-0.01,0.02l2.04,1.48c0.02,0.01,0.03,0.04,0.02,0.06l-0.78,2.4
			c-0.01,0.02,0,0.03,0.02,0.01l2.04-1.48c0.02-0.01,0.04-0.01,0.06,0l2.04,1.48c0.02,0.01,0.03,0.01,0.02-0.01l-0.78-2.4
			c-0.01-0.02,0-0.05,0.02-0.06L110.37,183.26z"/>
		<path d="M125.12,183.09c0.02-0.02,0.02-0.03-0.01-0.03l-3.08,0c-0.03,0-0.05-0.02-0.06-0.04l-0.95-2.93
			c-0.01-0.02-0.02-0.02-0.03,0l-0.95,2.93c-0.01,0.02-0.04,0.04-0.06,0.04h-3.08c-0.03,0-0.03,0.01-0.01,0.03l2.49,1.81
			c0.02,0.02,0.03,0.05,0.02,0.07l-0.95,2.93c-0.01,0.02,0,0.03,0.02,0.02l2.49-1.81c0.02-0.02,0.05-0.02,0.08,0l2.49,1.81
			c0.02,0.02,0.03,0.01,0.02-0.02l-0.95-2.93c-0.01-0.02,0-0.06,0.02-0.07L125.12,183.09z"/>
		<path d="M139.95,182.91c0.02-0.02,0.02-0.03-0.01-0.03h-3.71c-0.03,0-0.06-0.02-0.07-0.05l-1.15-3.52c-0.01-0.03-0.03-0.03-0.03,0
			l-1.15,3.52c-0.01,0.03-0.04,0.05-0.07,0.05h-3.71c-0.03,0-0.04,0.01-0.01,0.03l3,2.18c0.02,0.02,0.04,0.06,0.03,0.09l-1.15,3.53
			c-0.01,0.03,0,0.04,0.03,0.02l3-2.18c0.02-0.02,0.07-0.02,0.09,0l3,2.18c0.02,0.02,0.04,0.01,0.03-0.02l-1.15-3.52
			c-0.01-0.03,0-0.07,0.03-0.09L139.95,182.91z"/>
		<path d="M143.36,182.72c-0.04,0-0.04,0.02-0.01,0.04l0.65,0.47v-0.51H143.36z"/>
	</g>
</g>
<g id="Wip_cover">
	<g>
		<path fill="#FFFFFF" d="M67.47,112.88h3.55L65,129.79h-3l-3.91-11.21l-3.96,11.21h-3l-6-16.92h3.79l3.86,11.69l4.1-11.69h2.62
			l3.96,11.81L67.47,112.88z"/>
		<path fill="#FFFFFF" d="M75.05,129.79v-16.92h3.74v16.92H75.05z"/>
		<path fill="#FFFFFF" d="M84.08,112.88h7.78c1.84,0,3.27,0.46,4.3,1.39c1.02,0.93,1.54,2.22,1.54,3.89s-0.51,2.96-1.54,3.89
			c-1.02,0.93-2.46,1.39-4.3,1.39h-4.03v6.36h-3.74V112.88z M91.37,120.6c1.87,0,2.81-0.81,2.81-2.42c0-0.83-0.23-1.45-0.7-1.85
			c-0.46-0.4-1.17-0.6-2.11-0.6h-3.55v4.87H91.37z"/>
	</g>
	<g>
		<path fill="#FFFFFF" d="M91.17,145.69l-16.68-12.12h-4.98l-16.68,12.12l3.94-12.12h-3.15l-6.35,19.55
			c-0.05,0.15-0.02,0.24,0.06,0.24c0.04,0,0.1-0.02,0.17-0.07l24.15-17.55c0.1-0.07,0.23-0.11,0.36-0.11s0.26,0.04,0.36,0.11
			l24.15,17.55c0.07,0.05,0.13,0.07,0.17,0.07c0.08,0,0.11-0.08,0.06-0.24l-6.35-19.55h-3.15L91.17,145.69z"/>
		<path fill="#FFFFFF" d="M81.95,106.23c-0.25,0-0.51-0.19-0.59-0.43l-9.22-28.39c-0.04-0.12-0.09-0.18-0.14-0.18
			s-0.1,0.06-0.14,0.18l-9.22,28.39c-0.08,0.24-0.34,0.43-0.59,0.43H32.2c-0.25,0-0.29,0.12-0.09,0.26l3.77,2.74h5.1h21.07
			c1.55,0,2.96-1.03,3.44-2.5L72,86.69l6.51,20.04c0.48,1.47,1.89,2.5,3.44,2.5h21.07h5.1l3.77-2.74c0.2-0.15,0.16-0.26-0.09-0.26
			H81.95z"/>
	</g>
	<g>
		<path fill="#FFFFFF" d="M44.33,83.13H0v0.25h44.33c0.79,0,1.63-0.61,1.88-1.36L71.85,3.08c0.06-0.19,0.12-0.27,0.15-0.3
			c0.03,0.03,0.09,0.12,0.15,0.3L97.8,82.02c0.24,0.75,1.09,1.36,1.88,1.36H144v-0.25H99.67c-0.69,0-1.43-0.54-1.64-1.19L72.39,3
			C72.28,2.68,72.14,2.51,72,2.51c-0.14,0-0.28,0.16-0.39,0.49L45.96,81.94C45.75,82.6,45.01,83.13,44.33,83.13z"/>
		<path fill="#FFFFFF" d="M10.2,192h0.26l18.63-57.34c0.24-0.75-0.08-1.74-0.72-2.21L0,111.84v0.31l28.23,20.51
			c0.56,0.4,0.84,1.27,0.63,1.93L10.2,192z"/>
		<path fill="#FFFFFF" d="M115.14,134.58c-0.21-0.65,0.07-1.52,0.63-1.93L144,112.14v-0.31l-28.38,20.62
			c-0.64,0.46-0.96,1.45-0.72,2.21L133.53,192h0.26L115.14,134.58z"/>
		<path fill="#FFFFFF" d="M72,164.64c-0.44,0-0.85,0.12-1.16,0.35L33.66,192h0.43l36.9-26.81c0.28-0.2,0.65-0.3,1.01-0.3
			s0.73,0.1,1.01,0.3l36.9,26.81h0.43l-37.18-27.01C72.85,164.76,72.44,164.64,72,164.64z"/>
		<path fill="#FFFFFF" d="M144,121.34v-0.65l-19.2,13.95c-0.86,0.63-1.28,1.91-0.95,2.92L141.54,192h0.55l-17.74-54.6
			c-0.26-0.79,0.08-1.85,0.76-2.34L144,121.34z"/>
		<path fill="#FFFFFF" d="M1.91,192h0.55l17.69-54.44c0.33-1.01-0.09-2.3-0.95-2.92L0,120.69v0.65l18.89,13.73
			c0.68,0.49,1.02,1.54,0.76,2.34L1.91,192z"/>
		<path fill="#FFFFFF" d="M72,174.18c0.45,0,0.89,0.12,1.23,0.37L97.25,192h0.89l-24.61-17.88c-0.42-0.3-0.96-0.47-1.54-0.47
			s-1.12,0.17-1.54,0.47L45.85,192h0.89l24.03-17.46C71.11,174.3,71.55,174.18,72,174.18z"/>
		<path fill="#FFFFFF" d="M103.59,73.52L79.7,0h-0.55l23.94,73.69c0.33,1.01,1.42,1.81,2.49,1.81H144v-0.53h-38.42
			C104.75,74.97,103.85,74.32,103.59,73.52z"/>
		<path fill="#FFFFFF" d="M38.42,74.97H0v0.53h38.42c1.07,0,2.16-0.79,2.49-1.81L64.85,0h-0.55L40.41,73.52
			C40.15,74.32,39.25,74.97,38.42,74.97z"/>
		<path fill="#FFFFFF" d="M109.15,65.11L88,0h-0.84l21.23,65.35c0.41,1.26,1.77,2.25,3.1,2.25H144v-0.8h-32.51
			C110.51,66.8,109.46,66.04,109.15,65.11z"/>
		<path fill="#FFFFFF" d="M32.51,66.8H0v0.8h32.51c1.33,0,2.69-0.99,3.1-2.25L56.84,0H56L34.85,65.11
			C34.54,66.04,33.49,66.8,32.51,66.8z"/>
		<path fill="#FFFFFF" d="M134.45,137.47l9.55-6.94v-0.99l-10.02,7.28c-1.07,0.78-1.59,2.38-1.18,3.64l11.2,34.47v-2.59
			l-10.44-32.13C133.26,139.29,133.66,138.05,134.45,137.47z"/>
		<path fill="#FFFFFF" d="M0,172.35v2.59l11.2-34.47c0.41-1.26-0.11-2.86-1.18-3.64L0,129.55v0.99l9.55,6.94
			c0.79,0.58,1.2,1.81,0.89,2.75L0,172.35z"/>
		<path fill="#FFFFFF" d="M72,183.46c0.52,0,1.05,0.14,1.44,0.43L84.6,192h1.36l-12.04-8.75c-0.52-0.38-1.2-0.59-1.91-0.59
			c-0.71,0-1.39,0.21-1.91,0.59L58.04,192h1.36l11.15-8.1C70.95,183.61,71.48,183.46,72,183.46z"/>
		<path fill="#FFFFFF" d="M70.41,192h3.17c-0.48-0.2-1.02-0.32-1.59-0.32S70.9,191.8,70.41,192z"/>
		<path fill="#FFFFFF" d="M114.71,56.69L96.29,0h-1.13l18.53,57.02c0.49,1.51,2.12,2.7,3.71,2.7H144v-1.07h-26.6
			C116.27,58.64,115.06,57.76,114.71,56.69z"/>
		<path fill="#FFFFFF" d="M143.8,139.88l0.2-0.15v-1.33l-0.84,0.61c-1.29,0.93-1.91,2.85-1.42,4.36l2.25,6.93v-3.48l-1.23-3.79
			C142.42,141.97,142.88,140.55,143.8,139.88z"/>
		<path fill="#FFFFFF" d="M26.6,58.64H0v1.07h26.6c1.59,0,3.22-1.18,3.71-2.7L48.84,0h-1.13L29.29,56.69
			C28.94,57.76,27.73,58.64,26.6,58.64z"/>
		<path fill="#FFFFFF" d="M1.23,143.04L0,146.83v3.48l2.25-6.93c0.49-1.51-0.13-3.43-1.42-4.36L0,138.4v1.33l0.2,0.15
			C1.12,140.55,1.58,141.97,1.23,143.04z"/>
		<path fill="#FFFFFF" d="M20.69,50.47H0v1.35h20.69c1.85,0,3.75-1.38,4.32-3.14L40.83,0h-1.42L23.73,48.27
			C23.34,49.48,21.97,50.47,20.69,50.47z"/>
		<path fill="#FFFFFF" d="M120.27,48.27L104.59,0h-1.42l15.82,48.68c0.57,1.76,2.47,3.14,4.32,3.14H144v-1.35h-20.69
			C122.03,50.47,120.66,49.48,120.27,48.27z"/>
		<path fill="#FFFFFF" d="M125.83,39.85L112.88,0h-1.71l13.11,40.35c0.65,2.01,2.82,3.58,4.93,3.58H144v-1.63h-14.78
			C127.79,42.31,126.27,41.2,125.83,39.85z"/>
		<path fill="#FFFFFF" d="M14.78,42.31H0v1.63h14.78c2.11,0,4.28-1.57,4.93-3.58L32.83,0h-1.71L18.17,39.85
			C17.73,41.2,16.21,42.31,14.78,42.31z"/>
		<path fill="#FFFFFF" d="M131.39,31.43L121.18,0h-2l10.4,32.02c0.73,2.26,3.17,4.03,5.54,4.03H144v-1.9h-8.88
			C133.55,34.14,131.87,32.92,131.39,31.43z"/>
		<path fill="#FFFFFF" d="M8.88,34.14H0v1.9h8.88c2.37,0,4.81-1.77,5.54-4.03L24.82,0h-2L12.61,31.43
			C12.13,32.92,10.45,34.14,8.88,34.14z"/>
		<path fill="#FFFFFF" d="M136.95,23.01L129.47,0h-2.29l7.69,23.68c0.83,2.55,3.47,4.47,6.15,4.47H144v-2.17h-2.97
			C139.32,25.98,137.48,24.64,136.95,23.01z"/>
		<path fill="#FFFFFF" d="M2.97,25.98H0v2.17h2.97c2.68,0,5.33-1.92,6.15-4.47L16.82,0h-2.29L7.05,23.01
			C6.52,24.64,4.68,25.98,2.97,25.98z"/>
		<path fill="#FFFFFF" d="M0,16.67v2.89c1.76-0.84,3.23-2.37,3.83-4.21L8.81,0H6.24L1.5,14.59C1.24,15.38,0.69,16.1,0,16.67z"/>
		<path fill="#FFFFFF" d="M140.17,15.35c0.6,1.84,2.06,3.37,3.83,4.21v-2.89c-0.69-0.56-1.24-1.28-1.5-2.08L137.76,0h-2.58
			L140.17,15.35z"/>
		<polygon fill="#FFFFFF" points="0,2.48 0.81,0 0,0 		"/>
		<polygon fill="#FFFFFF" points="144,2.49 144,0 143.19,0 		"/>
	</g>
</g>
<g id="Design" display="none">
	<linearGradient id="SVGID_1_" gradientUnits="userSpaceOnUse" x1="0" y1="6" x2="144" y2="6">
		<stop  offset="0" style="stop-color:#FFFFFF"/>
		<stop  offset="1" style="stop-color:#CFCFCF"/>
	</linearGradient>
	<polygon display="inline" fill="url(#SVGID_1_)" points="144,6 113,6 107,12 0,12 0,0 144,0 	"/>
	<linearGradient id="SVGID_2_" gradientUnits="userSpaceOnUse" x1="0" y1="188" x2="144" y2="188">
		<stop  offset="0" style="stop-color:#FFFFFF"/>
		<stop  offset="1" style="stop-color:#CFCFCF"/>
	</linearGradient>
	<rect y="184" display="inline" fill="url(#SVGID_2_)" width="144" height="8"/>
	<g display="inline">
		<path fill="#151221" d="M6.96,9.47V5.58H5.48V4.54h4.26v1.04H8.26v3.89H6.96z"/>
		<path fill="#151221" d="M17.34,4.54h1.22l-1.76,4.94h-1.02l-1.04-2.96l-1.06,2.96h-1.03l-1.76-4.94h1.31l1.02,3.13l1.11-3.13h0.89
			l1.06,3.19L17.34,4.54z"/>
		<path fill="#151221" d="M19.93,9.47V4.54h1.29v4.94H19.93z"/>
		<path fill="#151221" d="M26.16,4.54h1.2v4.94h-0.95l-2.25-2.82v2.82h-1.2V4.54h0.94l2.26,2.82V4.54z"/>
		<path fill="#EC8817" d="M30.13,9.22c-0.37-0.21-0.66-0.5-0.86-0.88c-0.2-0.38-0.3-0.83-0.3-1.34c0-0.51,0.1-0.96,0.3-1.34
			c0.2-0.38,0.49-0.67,0.86-0.88s0.81-0.31,1.31-0.31s0.94,0.1,1.31,0.31s0.66,0.5,0.85,0.88c0.2,0.38,0.3,0.83,0.3,1.34
			c0,0.51-0.1,0.96-0.3,1.34c-0.2,0.38-0.49,0.67-0.86,0.88s-0.81,0.31-1.31,0.31C30.94,9.54,30.5,9.43,30.13,9.22z M32.32,8.15
			c0.21-0.26,0.32-0.65,0.32-1.15c0-0.5-0.11-0.89-0.32-1.15c-0.21-0.26-0.5-0.39-0.87-0.39c-0.37,0-0.67,0.13-0.88,0.39
			C30.36,6.11,30.25,6.49,30.25,7c0,0.51,0.11,0.89,0.32,1.16s0.5,0.39,0.88,0.39S32.11,8.42,32.32,8.15z"/>
		<path fill="#151221" d="M35.51,9.47V4.54h1.29v4.94H35.51z"/>
		<path fill="#151221" d="M38.53,4.54h2.01c0.55,0,1.02,0.1,1.41,0.29c0.39,0.2,0.7,0.48,0.91,0.85S43.17,6.49,43.17,7
			c0,0.51-0.1,0.96-0.31,1.33s-0.51,0.65-0.9,0.85c-0.39,0.2-0.87,0.29-1.42,0.29h-2.01V4.54z M40.45,8.44
			c0.49,0,0.85-0.12,1.08-0.36c0.24-0.24,0.36-0.6,0.36-1.08c0-0.48-0.12-0.84-0.36-1.07s-0.6-0.35-1.08-0.35h-0.63v2.86H40.45z"/>
		<path fill="#151221" d="M50.52,9.47L49.9,8.76c-0.18,0.25-0.4,0.44-0.66,0.57c-0.26,0.13-0.54,0.2-0.86,0.2
			c-0.29,0-0.55-0.05-0.77-0.15s-0.4-0.25-0.52-0.44c-0.12-0.19-0.19-0.4-0.19-0.65c0-0.28,0.09-0.54,0.26-0.78
			c0.17-0.24,0.46-0.49,0.86-0.75l0.09-0.06c-0.24-0.28-0.4-0.5-0.49-0.67C47.54,5.86,47.5,5.68,47.5,5.5c0-0.3,0.1-0.55,0.3-0.73
			c0.2-0.18,0.46-0.28,0.79-0.28c0.3,0,0.54,0.08,0.72,0.25s0.27,0.39,0.27,0.68c0,0.16-0.03,0.3-0.09,0.43s-0.17,0.26-0.31,0.4
			c-0.15,0.14-0.36,0.3-0.64,0.5l1.34,1.56c0.23-0.45,0.35-1,0.36-1.66h0.29c-0.02,0.76-0.17,1.38-0.46,1.88l0.82,0.95H50.52z
			 M49.73,8.55L48.31,6.9l-0.08,0.06c-0.39,0.26-0.66,0.48-0.81,0.68s-0.22,0.41-0.22,0.65c0,0.29,0.11,0.53,0.33,0.7
			s0.51,0.26,0.88,0.26C48.95,9.25,49.39,9.02,49.73,8.55z M47.92,5.94c0.07,0.14,0.22,0.34,0.43,0.59c0.36-0.24,0.6-0.44,0.73-0.6
			c0.13-0.15,0.2-0.32,0.2-0.5c0-0.2-0.06-0.36-0.19-0.49c-0.13-0.12-0.29-0.19-0.5-0.19c-0.23,0-0.42,0.07-0.56,0.2
			c-0.14,0.13-0.21,0.31-0.21,0.53C47.82,5.66,47.85,5.8,47.92,5.94z"/>
		<path fill="#B62226" d="M53.9,9.47V4.54h3.51v0.99h-2.25v0.94h2.11v0.99h-2.11v1.02h2.25v0.99H53.9z"/>
		<path fill="#6A100E" d="M60.14,9.47V5.58h-1.48V4.54h4.26v1.04h-1.48v3.89H60.14z"/>
		<path fill="#6A100E" d="M70.52,4.54h1.22l-1.76,4.94h-1.02l-1.04-2.96l-1.06,2.96h-1.03l-1.76-4.94h1.31l1.02,3.13l1.11-3.13h0.89
			l1.06,3.19L70.52,4.54z"/>
		<path fill="#6A100E" d="M73.12,9.47V4.54h1.29v4.94H73.12z"/>
		<path fill="#6A100E" d="M79.34,4.54h1.2v4.94h-0.95l-2.25-2.82v2.82h-1.2V4.54h0.94l2.26,2.82V4.54z"/>
	</g>
</g>
</svg>
