<?xml version="1.0" encoding="utf-8"?>
<!-- Generator: Adobe Illustrator 24.2.3, SVG Export Plug-In . SVG Version: 6.00 Build 0)  -->
<svg version="1.2" baseProfile="tiny" id="Calque_1"
	 xmlns="http://www.w3.org/2000/svg" xmlns:xlink="http://www.w3.org/1999/xlink" x="0px" y="0px" viewBox="0 0 144 192"
	 overflow="visible" xml:space="preserve">
<linearGradient id="SVGID_1_" gradientUnits="userSpaceOnUse" x1="0" y1="6" x2="144" y2="6">
	<stop  offset="0" style="stop-color:#FFFFFF"/>
	<stop  offset="1" style="stop-color:#CFCFCF"/>
</linearGradient>
<polygon fill="url(#SVGID_1_)" points="144,6 113,6 107,12 0,12 0,0 144,0 "/>
<linearGradient id="SVGID_2_" gradientUnits="userSpaceOnUse" x1="0" y1="188" x2="144" y2="188">
	<stop  offset="0" style="stop-color:#FFFFFF"/>
	<stop  offset="1" style="stop-color:#CFCFCF"/>
</linearGradient>
<rect y="184" fill="url(#SVGID_2_)" width="144" height="8"/>
<g>
	<path fill="#151221" d="M6.96,9.47V5.58H5.48V4.54h4.26v1.04H8.26v3.89H6.96z"/>
	<path fill="#151221" d="M17.34,4.54h1.22l-1.76,4.94h-1.02l-1.04-2.96l-1.06,2.96h-1.03l-1.76-4.94h1.31l1.02,3.13l1.11-3.13h0.89
		l1.06,3.19L17.34,4.54z"/>
	<path fill="#151221" d="M19.93,9.47V4.54h1.29v4.94H19.93z"/>
	<path fill="#151221" d="M26.16,4.54h1.2v4.94h-0.95l-2.25-2.82v2.82h-1.2V4.54h0.94l2.26,2.82V4.54z"/>
	<path fill="#EC8817" d="M30.13,9.22c-0.37-0.21-0.66-0.5-0.86-0.88c-0.2-0.38-0.3-0.83-0.3-1.34c0-0.51,0.1-0.96,0.3-1.34
		c0.2-0.38,0.49-0.67,0.86-0.88s0.81-0.31,1.31-0.31s0.94,0.1,1.31,0.31s0.66,0.5,0.85,0.88c0.2,0.38,0.3,0.83,0.3,1.34
		c0,0.51-0.1,0.96-0.3,1.34c-0.2,0.38-0.49,0.67-0.86,0.88s-0.81,0.31-1.31,0.31C30.94,9.54,30.5,9.43,30.13,9.22z M32.32,8.15
		c0.21-0.26,0.32-0.65,0.32-1.15c0-0.5-0.11-0.89-0.32-1.15c-0.21-0.26-0.5-0.39-0.87-0.39c-0.37,0-0.67,0.13-0.88,0.39
		C30.36,6.11,30.25,6.49,30.25,7c0,0.51,0.11,0.89,0.32,1.16s0.5,0.39,0.88,0.39S32.11,8.42,32.32,8.15z"/>
	<path fill="#151221" d="M35.51,9.47V4.54h1.29v4.94H35.51z"/>
	<path fill="#151221" d="M38.53,4.54h2.01c0.55,0,1.02,0.1,1.41,0.29c0.39,0.2,0.7,0.48,0.91,0.85S43.17,6.49,43.17,7
		c0,0.51-0.1,0.96-0.31,1.33s-0.51,0.65-0.9,0.85c-0.39,0.2-0.87,0.29-1.42,0.29h-2.01V4.54z M40.45,8.44
		c0.49,0,0.85-0.12,1.08-0.36c0.24-0.24,0.36-0.6,0.36-1.08c0-0.48-0.12-0.84-0.36-1.07s-0.6-0.35-1.08-0.35h-0.63v2.86H40.45z"/>
	<path fill="#B62226" d="M49.01,9.47V4.54h3.51v0.99h-2.25v0.94h2.11v0.99h-2.11v1.02h2.25v0.99H49.01z"/>
	<path fill="#6A100E" d="M55.26,9.47V5.58h-1.48V4.54h4.26v1.04h-1.48v3.89H55.26z"/>
	<path fill="#6A100E" d="M65.64,4.54h1.22l-1.76,4.94h-1.02l-1.04-2.96l-1.06,2.96h-1.03l-1.76-4.94h1.31l1.02,3.13l1.11-3.13h0.89
		l1.06,3.19L65.64,4.54z"/>
	<path fill="#6A100E" d="M68.23,9.47V4.54h1.29v4.94H68.23z"/>
	<path fill="#6A100E" d="M74.46,4.54h1.2v4.94h-0.95l-2.25-2.82v2.82h-1.2V4.54h0.94l2.26,2.82V4.54z"/>
</g>
</svg>
