<?xml version="1.0" encoding="utf-8"?>
<!-- Generator: Adobe Illustrator 24.2.3, SVG Export Plug-In . SVG Version: 6.00 Build 0)  -->
<svg version="1.2" baseProfile="tiny" id="Design" xmlns="http://www.w3.org/2000/svg" xmlns:xlink="http://www.w3.org/1999/xlink"
	 x="0px" y="0px" viewBox="0 0 32 192" overflow="visible" xml:space="preserve">
<rect fill="#B3B3B3" width="32" height="12"/>
<rect y="184" fill="#B3B3B3" width="32" height="8"/>
<g>
	<path fill="#151221" d="M20.2,167.64h-6.67v2.53h-1.79v-7.3h1.79v2.53h6.67V167.64z"/>
	<path fill="#151221" d="M11.74,150.09V148l8.46,3.02v1.75l-5.08,1.79l5.08,1.81v1.76l-8.46,3.01v-2.24l5.36-1.75l-5.36-1.9v-1.52
		l5.46-1.81L11.74,150.09z"/>
	<path fill="#151221" d="M20.2,145.88h-8.46v-2.21h8.46V145.88z"/>
	<path fill="#151221" d="M11.74,135.45v-2.06h8.46v1.63l-4.84,3.86h4.84v2.05h-8.46v-1.61l4.84-3.88H11.74z"/>
	<path fill="#151221" d="M19.77,128.88c-0.36,0.64-0.86,1.13-1.51,1.47c-0.65,0.34-1.42,0.52-2.3,0.52s-1.65-0.17-2.3-0.52
		c-0.65-0.34-1.15-0.83-1.51-1.47s-0.53-1.39-0.53-2.25s0.18-1.61,0.53-2.25s0.85-1.12,1.51-1.46c0.65-0.34,1.42-0.51,2.3-0.51
		s1.65,0.17,2.3,0.52c0.65,0.34,1.16,0.83,1.51,1.47c0.36,0.64,0.53,1.38,0.53,2.24C20.31,127.49,20.13,128.24,19.77,128.88z
		 M17.94,125.13c-0.45-0.36-1.11-0.54-1.97-0.54c-0.86,0-1.52,0.18-1.97,0.55c-0.45,0.36-0.67,0.86-0.67,1.49
		c0,0.64,0.22,1.14,0.67,1.5s1.1,0.54,1.97,0.54s1.53-0.18,1.98-0.54c0.45-0.36,0.67-0.86,0.67-1.5
		C18.61,125.99,18.39,125.49,17.94,125.13z"/>
	<path fill="#151221" d="M20.2,119.9h-8.46v-2.21h8.46V119.9z"/>
	<path fill="#151221" d="M11.74,114.95v-3.44c0-0.94,0.17-1.74,0.5-2.42s0.82-1.19,1.46-1.55c0.64-0.36,1.39-0.54,2.26-0.54
		c0.88,0,1.64,0.18,2.27,0.53c0.64,0.36,1.12,0.87,1.46,1.55c0.34,0.68,0.5,1.49,0.5,2.43v3.44H11.74z M18.42,111.66
		c0-0.83-0.2-1.45-0.61-1.86c-0.41-0.41-1.02-0.61-1.85-0.61c-0.82,0-1.44,0.2-1.84,0.61c-0.4,0.41-0.61,1.03-0.61,1.86v1.08h4.91
		V111.66z"/>
	<path fill="#151221" d="M20.2,93.63l-1.22,1.07c0.42,0.31,0.75,0.69,0.97,1.13c0.22,0.44,0.34,0.93,0.34,1.47
		c0,0.5-0.09,0.94-0.26,1.33c-0.18,0.39-0.43,0.69-0.75,0.9c-0.32,0.21-0.69,0.32-1.11,0.32c-0.49,0-0.93-0.15-1.34-0.45
		s-0.83-0.79-1.29-1.48l-0.1-0.16c-0.48,0.41-0.86,0.69-1.15,0.83c-0.28,0.15-0.59,0.22-0.91,0.22c-0.52,0-0.94-0.17-1.25-0.51
		c-0.32-0.34-0.47-0.79-0.47-1.36c0-0.52,0.14-0.93,0.43-1.24c0.28-0.31,0.67-0.46,1.16-0.46c0.27,0,0.52,0.05,0.74,0.16
		c0.22,0.1,0.45,0.28,0.68,0.54c0.24,0.26,0.52,0.62,0.86,1.1l2.68-2.29c-0.77-0.4-1.72-0.6-2.84-0.61v-0.5
		c1.3,0.03,2.37,0.3,3.22,0.79l1.63-1.4V93.63z M14.15,98.09c0.24-0.12,0.58-0.37,1.01-0.74c-0.42-0.62-0.76-1.04-1.02-1.26
		c-0.26-0.22-0.55-0.34-0.85-0.34c-0.34,0-0.62,0.11-0.83,0.33c-0.21,0.22-0.32,0.51-0.32,0.86c0,0.4,0.11,0.72,0.34,0.97
		s0.53,0.37,0.91,0.37C13.65,98.27,13.91,98.21,14.15,98.09z M18.61,95l-2.82,2.44l0.1,0.14c0.44,0.66,0.83,1.12,1.16,1.38
		c0.33,0.26,0.71,0.38,1.12,0.38c0.5,0,0.9-0.19,1.2-0.56c0.3-0.37,0.44-0.87,0.44-1.51C19.81,96.33,19.41,95.57,18.61,95z"/>
	<path fill="#151221" d="M20.2,86.24h-8.46v-6.01h1.7v3.86h1.61v-3.62h1.69v3.62h1.75v-3.86h1.7V86.24z"/>
	<path fill="#151221" d="M20.2,75.77h-6.67v2.53h-1.79v-7.3h1.79v2.53h6.67V75.77z"/>
	<path fill="#151221" d="M11.74,58.22v-2.09l8.46,3.02v1.75l-5.08,1.79l5.08,1.81v1.76l-8.46,3.01v-2.24l5.36-1.75l-5.36-1.9v-1.52
		l5.46-1.81L11.74,58.22z"/>
	<path fill="#151221" d="M20.2,54.01h-8.46V51.8h8.46V54.01z"/>
	<path fill="#151221" d="M11.74,43.58v-2.06h8.46v1.63l-4.84,3.86h4.84v2.05h-8.46v-1.61l4.84-3.88H11.74z"/>
</g>
</svg>
