<?xml version="1.0" encoding="utf-8"?>
<!-- Generator: Adobe Illustrator 24.2.3, SVG Export Plug-In . SVG Version: 6.00 Build 0)  -->
<svg version="1.2" baseProfile="tiny" id="Calque_1"
	 xmlns="http://www.w3.org/2000/svg" xmlns:xlink="http://www.w3.org/1999/xlink" x="0px" y="0px" viewBox="0 0 32 192"
	 overflow="visible" xml:space="preserve">
<rect fill="#B3B3B3" width="32" height="12"/>
<rect y="184" fill="#B3B3B3" width="32" height="8"/>
<g>
	<path fill="#151221" d="M21.2,167.2h-7.78v2.95h-2.09v-8.51h2.09v2.96h7.78V167.2z"/>
	<path fill="#151221" d="M11.33,146.71v-2.44l9.87,3.53v2.04l-5.92,2.09l5.92,2.11v2.06l-9.87,3.51v-2.62l6.26-2.04l-6.26-2.21
		v-1.78l6.37-2.11L11.33,146.71z"/>
	<path fill="#151221" d="M21.2,141.8h-9.87v-2.58h9.87V141.8z"/>
	<path fill="#151221" d="M11.33,129.64v-2.41h9.87v1.9l-5.64,4.51h5.64v2.39h-9.87v-1.88l5.64-4.52H11.33z"/>
	<path fill="#151221" d="M20.7,121.97c-0.42,0.74-1,1.31-1.76,1.71c-0.76,0.4-1.65,0.6-2.68,0.6s-1.92-0.2-2.68-0.6
		s-1.35-0.97-1.76-1.71s-0.62-1.62-0.62-2.63s0.21-1.88,0.62-2.63s1-1.31,1.76-1.71s1.65-0.59,2.68-0.59s1.92,0.2,2.68,0.6
		c0.76,0.4,1.35,0.97,1.76,1.71c0.42,0.74,0.62,1.61,0.62,2.61C21.32,120.35,21.12,121.23,20.7,121.97z M18.56,117.6
		c-0.53-0.42-1.29-0.63-2.3-0.63c-1.01,0-1.77,0.21-2.3,0.64c-0.52,0.42-0.78,1.01-0.78,1.74c0,0.75,0.26,1.33,0.78,1.75
		s1.29,0.63,2.3,0.63s1.79-0.21,2.31-0.63c0.52-0.42,0.78-1,0.78-1.75S19.09,118.02,18.56,117.6z"/>
	<path fill="#151221" d="M21.2,111.49h-9.87v-2.58h9.87V111.49z"/>
	<path fill="#151221" d="M11.33,105.72v-4.02c0-1.09,0.2-2.03,0.59-2.82c0.39-0.79,0.96-1.39,1.7-1.81s1.62-0.63,2.64-0.63
		c1.03,0,1.91,0.21,2.65,0.62c0.74,0.42,1.31,1.02,1.7,1.81c0.39,0.79,0.59,1.73,0.59,2.83v4.02H11.33z M19.13,101.89
		c0-0.97-0.24-1.69-0.71-2.17C17.94,99.24,17.22,99,16.26,99s-1.68,0.24-2.15,0.71c-0.47,0.48-0.71,1.2-0.71,2.17v1.26h5.73V101.89z
		"/>
	<path fill="#151221" d="M21.2,82.69h-9.87v-7.01h1.99v4.51h1.88v-4.23h1.97v4.23h2.04v-4.51h1.99V82.69z"/>
	<path fill="#151221" d="M21.2,70.49h-7.78v2.95h-2.09v-8.51h2.09v2.95h7.78V70.49z"/>
	<path fill="#151221" d="M11.33,50v-2.44l9.87,3.53v2.04l-5.92,2.09l5.92,2.11v2.06l-9.87,3.51v-2.62l6.26-2.04l-6.26-2.21v-1.78
		l6.37-2.11L11.33,50z"/>
	<path fill="#151221" d="M21.2,45.09h-9.87v-2.58h9.87V45.09z"/>
	<path fill="#151221" d="M11.33,32.93v-2.41h9.87v1.9l-5.64,4.51h5.64v2.39h-9.87v-1.88l5.64-4.52H11.33z"/>
</g>
</svg>
