<?xml version="1.0" encoding="utf-8"?>
<!-- Generator: Adobe Illustrator 16.0.0, SVG Export Plug-In . SVG Version: 6.00 Build 0)  -->
<svg version="1.2" baseProfile="tiny" id="Layer_1" xmlns="http://www.w3.org/2000/svg" xmlns:xlink="http://www.w3.org/1999/xlink"
	 x="0px" y="0px" width="54px" height="46px" viewBox="0 0 54 46" xml:space="preserve">
<g>
	<linearGradient id="SVGID_1_" gradientUnits="userSpaceOnUse" x1="0" y1="23" x2="53.1741" y2="23">
		<stop  offset="0.25" style="stop-color:#B62226"/>
		<stop  offset="1" style="stop-color:#6A100E"/>
	</linearGradient>
	<path fill="url(#SVGID_1_)" d="M19,11c0-1.2,1-2.1,2.1-2.1h2.6c-1.1,0.7-2.2,1.6-3.2,2.5c-0.4,0.4-0.6,0.8-0.7,1.4
		C19.4,12.4,19,11.8,19,11z M24.1,5.2h2.5l0,0c0.9,0,1.6,0.7,1.8,1.5c0.6-0.2,1.2-0.4,1.8-0.5c0.5-0.1,1-0.2,1.5-0.3l-1.9-6h-5.7
		c-1.4,0-2.6,1.2-2.6,2.6C21.5,4,22.7,5.2,24.1,5.2z M38.7,41.4c-0.2,0-0.4,0-0.6-0.1l6.1,4.6l-2-6.3C41.3,40.5,40,41.4,38.7,41.4z
		 M9.7,26.5c0-1.4-1.2-2.6-2.6-2.6c-0.1,0-0.2,0-0.2,0v0H2.7v0c0,0-0.1,0-0.1,0c-1.4,0-2.6,1.2-2.6,2.6s1.2,2.6,2.6,2.6
		c0,0,0.1,0,0.1,0v0h4.1v0c0.1,0,0.2,0,0.2,0C8.5,29.1,9.7,28,9.7,26.5z M36,39.4c-0.3-0.9,0-2.2,0.4-3.6c-5.8-0.8-10.7-5-12.2-10.7
		c-0.5,0-1.1,0.1-1.6,0.1c-0.8,0-1.5-0.4-2-1c-0.5-0.6-0.7-1.4-0.5-2.2c0.6-2.1,1.5-4,2.6-5.8c-0.6-0.3-1.2-0.6-1.7-0.9
		c-0.2-0.1-0.3-0.2-0.4-0.3H8.2c-1.6,0-2.8,1.3-2.8,2.8c0,1.6,1.3,2.8,2.8,2.8h2.5h6.3c0.9,0,1.7,0.8,1.7,1.7c0,0.7-0.4,1.3-1,1.5
		h-3.4c-1.4,0-2.6,1.2-2.6,2.6s1.2,2.6,2.6,2.6h4.5c1.7,0,3.1,1.4,3.1,3.1c0,1.7-1.4,3.1-3.1,3.1h-0.1h-4.1c-1.1,0-2,0.9-2,2
		c0,1.1,0.9,2,2,2h0.7c0.9,0,1.6,0.7,1.6,1.6c0,0.9-0.7,1.6-1.6,1.6H10c-1,0-1.8,0.8-1.8,1.8c0,1,0.8,1.8,1.8,1.8h5.4l14.4-10.9
		l6.4,4.8C36.1,39.8,36,39.6,36,39.4z"/>
	<g>
		<path fill="#FFB0AF" d="M49.9,17.5c-1.3-4-4.6-6.9-8.5-8c-3.4-1.3-7.1-1.7-10.7-0.9c-3.3,0.7-6.1,2.3-8.4,4.5
			c1.4,0.8,3,1.5,4.7,1.9c-2.2,2.2-3.7,4.8-4.4,7.6c1.2,0,2.5-0.1,3.7-0.4c0,0.5,0.1,1.1,0.2,1.6c1.4,6.3,7.4,10.4,13.7,9.5
			c-1,2-2,4.7-1.8,5.4c0.2,0.8,2.4-0.9,2.9-1.6c0.6-0.9,1.2-2.8,1.4-4.4c0.5-0.2,0.9-0.4,1.4-0.6c-0.4,1.6-0.6,3.3-0.4,3.8
			c0.3,0.7,2.2-1.3,2.6-2c0.4-0.8,0.6-2.4,0.7-3.8c2.3-2.3,3.6-5.4,3.6-8.7c0.6-0.4,1.2-0.9,1.5-1.4c1.6-2,1.9-3.6,1.9-3.6
			S51.9,16.6,49.9,17.5 M47,17.5c-0.6-0.1-2.4-2.5-2.9-3.5c-0.2-0.3-0.6-1.3-0.3-1.3c0.7-0.1,2.8,1.8,3.3,2.8
			C47.3,15.9,47.6,17.7,47,17.5"/>
		<path fill="#5A0604" d="M47,17.5c-0.6-0.1-2.4-2.5-2.9-3.5c-0.2-0.3-0.6-1.3-0.3-1.3c0.7-0.1,2.8,1.8,3.3,2.8
			C47.3,15.9,47.6,17.7,47,17.5"/>
		<path fill="#ED8A8A" d="M29.4,9c-2.7,0.8-5.1,2.3-7,4.2c1.4,0.8,3,1.5,4.7,1.9c-2.2,2.2-3.7,4.8-4.4,7.6c0,0,0,0,0,0
			c1.2,0,2.4-0.1,3.6-0.4c0,0.5,0.1,1.1,0.2,1.6c1.2,5.7,6.3,9.6,11.9,9.6c0.6,0,1.2,0,1.8-0.1c-1,2-2,4.7-1.8,5.4
			c0,0.1,0.2,0.2,0.3,0.2c0.7,0,2.2-1.3,2.6-1.8c0.6-0.9,1.2-2.8,1.4-4.4c0.5-0.2,0.9-0.4,1.4-0.6c-0.4,1.6-0.6,3.3-0.4,3.8
			c0.1,0.1,0.1,0.2,0.2,0.2c0.6,0,2-1.6,2.3-2.2c0.4-0.7,0.6-2.2,0.6-3.5c-10.1-1.9-17.7-9.7-17.7-19C29.2,10.5,29.3,9.7,29.4,9
			 M29.4,9L29.4,9"/>
		<path fill="#FFB0AF" d="M29.4,9c-2.7,0.8-5.1,2.3-7,4.2c1.4-0.9,4-2.2,6.1-2.8c0.7-0.2,0.7-1.1,0.8-0.8C29.6,9.3,29.3,9.4,29.4,9z
			"/>
		<path fill="#FFB0AF" d="M27.3,16.7c1.3-1.3,0.6-1.1-0.3-1.6c-2.2,2.2-3.7,4.8-4.4,7.6l0,0C22.6,22.7,23.8,19.9,27.3,16.7
			L27.3,16.7z"/>
		<path fill="#ED8A8A" d="M44.6,29.7L44.6,29.7c0.8,0.2,1.5,0.4,2.3,0.6c0-0.1,0-0.2,0-0.3c0.3-0.3,0.6-0.7,0.9-1.1
			C46.8,29.9,45.8,30,44.6,29.7z"/>
	</g>
</g>
</svg>
