<?xml version="1.0" encoding="utf-8"?>
<!-- Generator: Adobe Illustrator 16.0.0, SVG Export Plug-In . SVG Version: 6.00 Build 0)  -->
<svg version="1.2" baseProfile="tiny" id="Layer_1" xmlns="http://www.w3.org/2000/svg" xmlns:xlink="http://www.w3.org/1999/xlink"
	 x="0px" y="0px" width="400px" height="62px" viewBox="0 0 400 62" xml:space="preserve">
<g>
	<linearGradient id="SVGID_1_" gradientUnits="userSpaceOnUse" x1="200" y1="62" x2="200" y2="14">
		<stop  offset="0" style="stop-color:#050507;stop-opacity:0.75"/>
		<stop  offset="1" style="stop-color:#050507;stop-opacity:0"/>
	</linearGradient>
	<rect y="14" display="none" fill="url(#SVGID_1_)" width="400" height="48"/>
	<path fill="#040406" d="M375.3,41.1c-1.6,1.6-4.2,1.6-5.8,0c-1.6-1.6-1.6-4.2,0-5.8l3.2-3.2c1.6-1.6,4.2-1.6,5.8,0
		c1.6,1.6,1.6,4.2,0,5.8L375.3,41.1z M277,27.1c1.2-1.2,1.2-3.1,0-4.3c-1.2-1.2-3.1-1.2-4.3,0l-4.9,4.9c-1.2,1.2-1.2,3.1,0,4.3
		c1.2,1.2,3.1,1.2,4.3,0L277,27.1z M104.4,4.1c2-2,5.2-2,7.2,0c2,2,2,5.2,0,7.2l-3.2,3.2c-2,2-5.2,2-7.2,0c-2-2-2-5.2,0-7.2
		L104.4,4.1z M400,62H0v-5.3l31.5-31.5c2-2,5.2-2,7.2,0c2,2,2,5.2,0,7.2L25.9,45.1c-1.6,1.6-1.6,4.2,0,5.8c1.6,1.6,4.2,1.6,5.8,0
		L79.8,2.8c1.6-1.6,4.2-1.6,5.8,0c1.6,1.6,1.6,4.2,0,5.8L63.2,30.9c-2,2-2,5.2,0,7.2c2,2,5.2,2,7.2,0l18.9-18.9c2-2,5.2-2,7.2,0
		c2,2,2,5.2,0,7.2l-4.6,4.6c-1.2,1.2-1.2,3.1,0,4.3c1.2,1.2,3.1,1.2,4.3,0l18.3-18.3c1.6-1.6,4.2-1.6,5.8,0c1.6,1.6,1.6,4.2,0,5.8
		l-18.8,18.8c-2.4,2.4-2.4,6.3,0,8.6c2.4,2.4,6.3,2.4,8.6,0l37.8-37.8c2.8-2.8,7.3-2.8,10.1,0c2.8,2.8,2.8,7.3,0,10.1l-9.3,9.3
		c-2,2-2,5.2,0,7.2s5.2,2,7.2,0l6.7-6.7c1.2-1.2,3.1-1.2,4.3,0c1.2,1.2,1.2,3.1,0,4.3l-10.6,10.6c-1.6,1.6-1.6,4.2,0,5.8
		c1.6,1.6,4.2,1.6,5.8,0l32.3-32.3c1.6-1.6,4.2-1.6,5.8,0c1.6,1.6,1.6,4.2,0,5.8l-11.7,11.7c-1.2,1.2-1.2,3.1,0,4.3
		c1.2,1.2,3.1,1.2,4.3,0l34.1-34.1c2.4-2.4,6.3-2.4,8.6,0c2.4,2.4,2.4,6.3,0,8.6L209,43.3c-1.6,1.6-1.6,4.2,0,5.8
		c1.6,1.6,4.2,1.6,5.8,0l21.5-21.5c2.4-2.4,6.3-2.4,8.6,0c2.4,2.4,2.4,6.2,0,8.6l-8.6,8.6c-2,2-2,5.2,0,7.2c2,2,5.2,2,7.2,0
		l17.1-17.1c1.2-1.2,3.1-1.2,4.3,0c1.2,1.2,1.2,3.1,0,4.3l-6.9,6.9c-2,2-2,5.2,0,7.2c2,2,5.2,2,7.2,0l31-31c1.6-1.6,4.2-1.6,5.8,0
		c1.6,1.6,1.6,4.2,0,5.8l-9.1,9.1c-2,2-2,5.2,0,7.2c2,2,5.2,2,7.2,0l25.9-25.9c2.8-2.8,7.3-2.8,10.1,0c2.8,2.8,2.8,7.3,0,10.1
		l-20.2,20.2c-1.6,1.6-1.6,4.2,0,5.8c1.6,1.6,4.2,1.6,5.8,0l47.2-47.2c2-2,5.2-2,7.2,0c2,2,2,5.2,0,7.2l-29.1,29.1c-2,2-2,5.2,0,7.2
		c2,2,5.2,2,7.2,0l7.6-7.6c1.6-1.6,4.2-1.6,5.8,0c1.6,1.6,1.6,4.2,0,5.8l-3.7,3.7c-2,2-2,5.2,0,7.2c2,2,5.2,2,7.2,0L393,37.8
		c1.6-1.6,4.2-1.6,5.8,0c1.6,1.6,1.6,4.2,0,5.8l-5.9,5.9c-2,2-2,5.2,0,7.2c2,2,5.2,2,7.2,0V62z"/>
</g>
</svg>
